<svg xmlns="http://www.w3.org/2000/svg" xmlns:xlink="http://www.w3.org/1999/xlink" width="500" zoomAndPan="magnify" viewBox="0 0 375 374.999991" height="500" preserveAspectRatio="xMidYMid meet" version="1.0"><defs><g/><clipPath id="id1"><path d="M 23 90 L 352 90 L 352 297.6875 L 23 297.6875 Z M 23 90 " clip-rule="nonzero"/></clipPath></defs><g clip-path="url(#id1)"><path fill="rgb(92.939758%, 53.329468%, 53.329468%)" d="M 324.9375 233.148438 L 324.9375 189.222656 C 324.945312 188.351562 324.773438 187.519531 324.425781 186.726562 C 324.078125 185.929688 323.582031 185.242188 322.9375 184.65625 L 278.964844 143.773438 L 297.050781 143.773438 C 297.460938 143.773438 297.871094 143.734375 298.273438 143.652344 C 298.679688 143.574219 299.074219 143.453125 299.453125 143.296875 C 299.835938 143.140625 300.195312 142.945312 300.539062 142.71875 C 300.882812 142.488281 301.199219 142.226562 301.492188 141.9375 C 301.78125 141.644531 302.042969 141.328125 302.273438 140.984375 C 302.5 140.644531 302.695312 140.28125 302.851562 139.902344 C 303.011719 139.519531 303.128906 139.128906 303.210938 138.722656 C 303.289062 138.320312 303.332031 137.910156 303.332031 137.5 L 303.332031 96.523438 C 303.332031 96.109375 303.289062 95.703125 303.210938 95.296875 C 303.128906 94.894531 303.011719 94.5 302.851562 94.121094 C 302.695312 93.738281 302.5 93.378906 302.273438 93.035156 C 302.042969 92.691406 301.78125 92.375 301.492188 92.085938 C 301.199219 91.792969 300.882812 91.53125 300.539062 91.304688 C 300.195312 91.074219 299.835938 90.882812 299.453125 90.722656 C 299.074219 90.566406 298.679688 90.449219 298.273438 90.367188 C 297.871094 90.285156 297.460938 90.246094 297.050781 90.246094 L 78.140625 90.246094 C 77.726562 90.238281 77.316406 90.273438 76.910156 90.351562 C 76.5 90.425781 76.105469 90.542969 75.722656 90.699219 C 75.335938 90.851562 74.972656 91.046875 74.628906 91.273438 C 74.28125 91.503906 73.964844 91.761719 73.671875 92.054688 C 73.378906 92.347656 73.117188 92.667969 72.886719 93.011719 C 72.660156 93.355469 72.464844 93.722656 72.3125 94.105469 C 72.15625 94.488281 72.039062 94.882812 71.964844 95.289062 C 71.886719 95.699219 71.851562 96.109375 71.859375 96.523438 L 71.859375 137.5 C 71.851562 137.914062 71.886719 138.324219 71.964844 138.730469 C 72.039062 139.136719 72.15625 139.53125 72.3125 139.917969 C 72.464844 140.300781 72.660156 140.664062 72.886719 141.007812 C 73.117188 141.355469 73.378906 141.671875 73.671875 141.964844 C 73.964844 142.257812 74.28125 142.519531 74.628906 142.746094 C 74.972656 142.976562 75.335938 143.167969 75.722656 143.324219 C 76.105469 143.480469 76.5 143.59375 76.910156 143.671875 C 77.316406 143.746094 77.726562 143.78125 78.140625 143.773438 L 96.226562 143.773438 L 52.253906 184.65625 C 51.609375 185.242188 51.113281 185.929688 50.765625 186.726562 C 50.414062 187.519531 50.246094 188.351562 50.253906 189.222656 L 50.253906 233.148438 C 49.597656 233.273438 48.945312 233.421875 48.296875 233.589844 C 47.648438 233.757812 47.007812 233.945312 46.371094 234.152344 C 45.738281 234.359375 45.109375 234.585938 44.484375 234.832031 C 43.863281 235.078125 43.25 235.339844 42.644531 235.625 C 42.039062 235.90625 41.441406 236.210938 40.855469 236.527344 C 40.265625 236.847656 39.691406 237.1875 39.125 237.542969 C 38.558594 237.898438 38.003906 238.269531 37.460938 238.660156 C 36.914062 239.046875 36.382812 239.453125 35.867188 239.875 C 35.347656 240.296875 34.84375 240.734375 34.351562 241.1875 C 33.859375 241.640625 33.382812 242.109375 32.917969 242.59375 C 32.457031 243.074219 32.007812 243.570312 31.578125 244.082031 C 31.144531 244.589844 30.726562 245.113281 30.328125 245.648438 C 29.929688 246.183594 29.542969 246.730469 29.179688 247.289062 C 28.8125 247.847656 28.460938 248.417969 28.132812 249 C 27.800781 249.578125 27.488281 250.167969 27.191406 250.769531 C 26.894531 251.367188 26.621094 251.976562 26.363281 252.59375 C 26.105469 253.210938 25.867188 253.835938 25.648438 254.464844 C 25.425781 255.097656 25.226562 255.734375 25.046875 256.378906 C 24.867188 257.019531 24.707031 257.667969 24.566406 258.324219 C 24.425781 258.976562 24.308594 259.632812 24.207031 260.292969 C 24.109375 260.953125 24.027344 261.617188 23.96875 262.28125 C 23.910156 262.949219 23.871094 263.617188 23.855469 264.285156 C 23.835938 264.949219 23.839844 265.617188 23.863281 266.285156 C 23.882812 266.953125 23.929688 267.621094 23.992188 268.285156 C 24.058594 268.949219 24.140625 269.613281 24.246094 270.273438 C 24.351562 270.933594 24.476562 271.589844 24.621094 272.242188 C 24.765625 272.894531 24.933594 273.542969 25.117188 274.183594 C 25.300781 274.824219 25.507812 275.460938 25.730469 276.089844 C 25.957031 276.71875 26.199219 277.34375 26.460938 277.957031 C 26.722656 278.570312 27.003906 279.175781 27.304688 279.773438 C 27.605469 280.371094 27.921875 280.960938 28.257812 281.535156 C 28.59375 282.113281 28.949219 282.679688 29.320312 283.238281 C 29.6875 283.792969 30.078125 284.339844 30.480469 284.871094 C 30.886719 285.402344 31.304688 285.921875 31.742188 286.429688 C 32.179688 286.933594 32.628906 287.425781 33.097656 287.90625 C 33.5625 288.386719 34.042969 288.847656 34.539062 289.296875 C 35.035156 289.746094 35.542969 290.179688 36.0625 290.597656 C 36.585938 291.015625 37.121094 291.417969 37.667969 291.804688 C 38.214844 292.1875 38.769531 292.558594 39.339844 292.90625 C 39.910156 293.257812 40.488281 293.59375 41.078125 293.90625 C 41.667969 294.222656 42.265625 294.519531 42.875 294.796875 C 43.484375 295.078125 44.097656 295.335938 44.722656 295.578125 C 45.347656 295.820312 45.976562 296.039062 46.613281 296.242188 C 47.253906 296.445312 47.894531 296.625 48.542969 296.789062 C 49.191406 296.953125 49.847656 297.09375 50.503906 297.214844 C 51.160156 297.339844 51.820312 297.441406 52.484375 297.523438 C 53.148438 297.605469 53.816406 297.667969 54.484375 297.707031 C 55.152344 297.75 55.820312 297.769531 56.488281 297.769531 C 57.15625 297.769531 57.824219 297.75 58.492188 297.707031 C 59.160156 297.667969 59.824219 297.605469 60.488281 297.523438 C 61.152344 297.441406 61.8125 297.339844 62.472656 297.214844 C 63.128906 297.09375 63.78125 296.953125 64.429688 296.789062 C 65.082031 296.625 65.722656 296.445312 66.359375 296.242188 C 67 296.039062 67.628906 295.820312 68.253906 295.578125 C 68.878906 295.335938 69.492188 295.078125 70.101562 294.796875 C 70.707031 294.519531 71.308594 294.222656 71.898438 293.90625 C 72.488281 293.59375 73.066406 293.257812 73.636719 292.90625 C 74.203125 292.558594 74.761719 292.1875 75.308594 291.804688 C 75.855469 291.417969 76.390625 291.015625 76.910156 290.597656 C 77.433594 290.179688 77.941406 289.746094 78.4375 289.296875 C 78.933594 288.847656 79.414062 288.386719 79.878906 287.90625 C 80.347656 287.425781 80.796875 286.933594 81.234375 286.429688 C 81.671875 285.921875 82.089844 285.402344 82.496094 284.871094 C 82.898438 284.339844 83.285156 283.792969 83.65625 283.238281 C 84.027344 282.679688 84.382812 282.113281 84.71875 281.535156 C 85.054688 280.960938 85.371094 280.371094 85.671875 279.773438 C 85.972656 279.175781 86.253906 278.570312 86.515625 277.957031 C 86.777344 277.34375 87.019531 276.71875 87.246094 276.089844 C 87.46875 275.460938 87.671875 274.824219 87.859375 274.183594 C 88.042969 273.542969 88.210938 272.894531 88.355469 272.242188 C 88.5 271.589844 88.625 270.933594 88.730469 270.273438 C 88.835938 269.613281 88.917969 268.949219 88.984375 268.285156 C 89.046875 267.621094 89.089844 266.953125 89.113281 266.285156 C 89.136719 265.617188 89.140625 264.953125 89.121094 264.285156 C 89.105469 263.617188 89.066406 262.949219 89.007812 262.28125 C 88.949219 261.617188 88.867188 260.953125 88.769531 260.292969 C 88.667969 259.632812 88.550781 258.976562 88.410156 258.324219 C 88.269531 257.667969 88.109375 257.019531 87.929688 256.378906 C 87.75 255.734375 87.546875 255.097656 87.328125 254.464844 C 87.109375 253.835938 86.871094 253.210938 86.613281 252.59375 C 86.355469 251.976562 86.078125 251.367188 85.785156 250.769531 C 85.488281 250.167969 85.175781 249.578125 84.84375 249 C 84.511719 248.417969 84.164062 247.847656 83.796875 247.289062 C 83.429688 246.730469 83.046875 246.183594 82.648438 245.648438 C 82.246094 245.113281 81.832031 244.589844 81.398438 244.082031 C 80.96875 243.570312 80.519531 243.074219 80.054688 242.59375 C 79.59375 242.109375 79.117188 241.640625 78.625 241.1875 C 78.132812 240.734375 77.628906 240.296875 77.109375 239.875 C 76.589844 239.453125 76.058594 239.046875 75.515625 238.660156 C 74.972656 238.269531 74.417969 237.898438 73.851562 237.542969 C 73.285156 237.1875 72.707031 236.847656 72.121094 236.527344 C 71.535156 236.210938 70.9375 235.90625 70.332031 235.625 C 69.726562 235.339844 69.113281 235.078125 68.492188 234.832031 C 67.867188 234.585938 67.238281 234.359375 66.601562 234.152344 C 65.96875 233.945312 65.324219 233.757812 64.679688 233.589844 C 64.03125 233.421875 63.378906 233.273438 62.722656 233.148438 L 62.722656 191.980469 L 114.6875 143.773438 L 116.308594 143.773438 L 116.308594 173.914062 C 115.652344 174.042969 115 174.1875 114.351562 174.355469 C 113.703125 174.523438 113.0625 174.710938 112.425781 174.917969 C 111.789062 175.125 111.160156 175.351562 110.539062 175.597656 C 109.917969 175.84375 109.304688 176.109375 108.695312 176.390625 C 108.089844 176.675781 107.496094 176.976562 106.90625 177.296875 C 106.320312 177.617188 105.742188 177.953125 105.175781 178.308594 C 104.609375 178.664062 104.054688 179.039062 103.511719 179.425781 C 102.96875 179.816406 102.4375 180.222656 101.917969 180.644531 C 101.402344 181.066406 100.894531 181.503906 100.402344 181.957031 C 99.914062 182.410156 99.433594 182.878906 98.972656 183.359375 C 98.511719 183.84375 98.0625 184.339844 97.628906 184.847656 C 97.199219 185.359375 96.78125 185.878906 96.382812 186.417969 C 95.980469 186.953125 95.597656 187.5 95.230469 188.058594 C 94.863281 188.617188 94.515625 189.1875 94.183594 189.765625 C 93.851562 190.347656 93.539062 190.9375 93.246094 191.535156 C 92.949219 192.136719 92.671875 192.746094 92.414062 193.359375 C 92.15625 193.976562 91.917969 194.601562 91.699219 195.234375 C 91.480469 195.863281 91.28125 196.5 91.101562 197.144531 C 90.921875 197.789062 90.761719 198.4375 90.621094 199.089844 C 90.480469 199.742188 90.359375 200.398438 90.261719 201.0625 C 90.160156 201.722656 90.082031 202.386719 90.023438 203.050781 C 89.964844 203.714844 89.925781 204.382812 89.90625 205.050781 C 89.890625 205.71875 89.890625 206.386719 89.914062 207.054688 C 89.9375 207.722656 89.980469 208.386719 90.046875 209.054688 C 90.109375 209.71875 90.195312 210.382812 90.300781 211.039062 C 90.40625 211.699219 90.53125 212.355469 90.675781 213.007812 C 90.820312 213.660156 90.984375 214.308594 91.171875 214.949219 C 91.355469 215.59375 91.558594 216.226562 91.785156 216.859375 C 92.007812 217.488281 92.253906 218.109375 92.515625 218.722656 C 92.777344 219.339844 93.058594 219.945312 93.359375 220.542969 C 93.65625 221.140625 93.976562 221.726562 94.3125 222.304688 C 94.648438 222.882812 95 223.449219 95.371094 224.003906 C 95.742188 224.5625 96.128906 225.105469 96.535156 225.636719 C 96.9375 226.167969 97.359375 226.6875 97.796875 227.195312 C 98.230469 227.703125 98.683594 228.195312 99.148438 228.671875 C 99.617188 229.152344 100.097656 229.617188 100.59375 230.066406 C 101.085938 230.515625 101.597656 230.949219 102.117188 231.367188 C 102.640625 231.785156 103.171875 232.1875 103.71875 232.570312 C 104.265625 232.957031 104.824219 233.324219 105.394531 233.675781 C 105.960938 234.027344 106.542969 234.359375 107.132812 234.675781 C 107.722656 234.992188 108.320312 235.289062 108.929688 235.566406 C 109.535156 235.84375 110.152344 236.105469 110.777344 236.34375 C 111.398438 236.585938 112.03125 236.808594 112.667969 237.007812 C 113.304688 237.210938 113.949219 237.394531 114.597656 237.554688 C 115.246094 237.71875 115.898438 237.863281 116.558594 237.984375 C 117.214844 238.105469 117.875 238.207031 118.539062 238.289062 C 119.203125 238.371094 119.867188 238.433594 120.535156 238.476562 C 121.203125 238.515625 121.871094 238.535156 122.542969 238.535156 C 123.210938 238.535156 123.878906 238.515625 124.546875 238.476562 C 125.214844 238.433594 125.878906 238.371094 126.542969 238.289062 C 127.207031 238.207031 127.867188 238.105469 128.523438 237.984375 C 129.183594 237.863281 129.835938 237.71875 130.484375 237.554688 C 131.132812 237.394531 131.777344 237.210938 132.414062 237.007812 C 133.050781 236.808594 133.683594 236.585938 134.304688 236.34375 C 134.929688 236.105469 135.546875 235.84375 136.152344 235.566406 C 136.761719 235.289062 137.359375 234.992188 137.949219 234.675781 C 138.539062 234.359375 139.121094 234.027344 139.6875 233.675781 C 140.257812 233.324219 140.816406 232.957031 141.363281 232.570312 C 141.910156 232.1875 142.441406 231.785156 142.964844 231.367188 C 143.488281 230.949219 143.996094 230.515625 144.492188 230.066406 C 144.984375 229.617188 145.464844 229.152344 145.933594 228.671875 C 146.398438 228.195312 146.851562 227.703125 147.289062 227.195312 C 147.722656 226.6875 148.144531 226.167969 148.546875 225.636719 C 148.953125 225.105469 149.339844 224.5625 149.710938 224.003906 C 150.082031 223.449219 150.433594 222.882812 150.769531 222.304688 C 151.105469 221.726562 151.425781 221.140625 151.722656 220.542969 C 152.023438 219.945312 152.304688 219.339844 152.566406 218.722656 C 152.832031 218.109375 153.074219 217.488281 153.296875 216.859375 C 153.523438 216.226562 153.726562 215.59375 153.910156 214.949219 C 154.097656 214.308594 154.261719 213.660156 154.40625 213.007812 C 154.554688 212.355469 154.679688 211.699219 154.78125 211.039062 C 154.886719 210.382812 154.972656 209.71875 155.035156 209.054688 C 155.101562 208.386719 155.144531 207.722656 155.167969 207.054688 C 155.191406 206.386719 155.195312 205.71875 155.175781 205.050781 C 155.15625 204.382812 155.117188 203.714844 155.058594 203.050781 C 155 202.386719 154.921875 201.722656 154.820312 201.0625 C 154.722656 200.398438 154.601562 199.742188 154.460938 199.089844 C 154.320312 198.4375 154.160156 197.789062 153.980469 197.144531 C 153.800781 196.5 153.601562 195.863281 153.382812 195.234375 C 153.164062 194.601562 152.925781 193.976562 152.667969 193.359375 C 152.410156 192.746094 152.132812 192.136719 151.835938 191.535156 C 151.542969 190.9375 151.230469 190.347656 150.898438 189.765625 C 150.566406 189.1875 150.21875 188.617188 149.851562 188.058594 C 149.484375 187.5 149.101562 186.953125 148.703125 186.417969 C 148.300781 185.878906 147.886719 185.359375 147.453125 184.847656 C 147.019531 184.339844 146.574219 183.84375 146.109375 183.359375 C 145.648438 182.878906 145.167969 182.410156 144.679688 181.957031 C 144.1875 181.503906 143.679688 181.066406 143.164062 180.644531 C 142.644531 180.222656 142.113281 179.816406 141.570312 179.425781 C 141.027344 179.039062 140.472656 178.664062 139.90625 178.308594 C 139.339844 177.953125 138.761719 177.617188 138.175781 177.296875 C 137.585938 176.976562 136.992188 176.675781 136.386719 176.390625 C 135.78125 176.109375 135.164062 175.84375 134.542969 175.597656 C 133.921875 175.351562 133.292969 175.125 132.65625 174.917969 C 132.019531 174.710938 131.378906 174.523438 130.730469 174.355469 C 130.082031 174.1875 129.433594 174.042969 128.773438 173.914062 L 128.773438 143.773438 L 181.3125 143.773438 L 181.3125 227.347656 C 180.660156 227.476562 180.011719 227.625 179.367188 227.792969 C 178.71875 227.960938 178.082031 228.148438 177.449219 228.355469 C 176.816406 228.5625 176.1875 228.789062 175.570312 229.035156 C 174.949219 229.28125 174.339844 229.546875 173.734375 229.832031 C 173.132812 230.113281 172.539062 230.414062 171.953125 230.734375 C 171.371094 231.054688 170.796875 231.394531 170.230469 231.746094 C 169.667969 232.101562 169.117188 232.476562 168.574219 232.863281 C 168.035156 233.253906 167.507812 233.660156 166.992188 234.078125 C 166.472656 234.5 165.972656 234.9375 165.484375 235.390625 C 164.992188 235.84375 164.519531 236.308594 164.058594 236.789062 C 163.597656 237.273438 163.152344 237.765625 162.722656 238.277344 C 162.292969 238.785156 161.878906 239.304688 161.480469 239.839844 C 161.082031 240.375 160.703125 240.921875 160.339844 241.476562 C 159.972656 242.035156 159.628906 242.601562 159.296875 243.183594 C 158.96875 243.761719 158.65625 244.347656 158.363281 244.945312 C 158.070312 245.542969 157.796875 246.152344 157.539062 246.765625 C 157.285156 247.378906 157.046875 248.003906 156.828125 248.632812 C 156.613281 249.261719 156.414062 249.894531 156.234375 250.539062 C 156.054688 251.179688 155.898438 251.824219 155.757812 252.476562 C 155.621094 253.128906 155.5 253.78125 155.402344 254.441406 C 155.304688 255.097656 155.226562 255.761719 155.167969 256.421875 C 155.109375 257.085938 155.074219 257.75 155.054688 258.417969 C 155.039062 259.082031 155.042969 259.746094 155.066406 260.414062 C 155.089844 261.078125 155.132812 261.742188 155.199219 262.40625 C 155.261719 263.066406 155.347656 263.726562 155.453125 264.382812 C 155.558594 265.042969 155.683594 265.695312 155.828125 266.34375 C 155.972656 266.996094 156.140625 267.640625 156.324219 268.277344 C 156.507812 268.917969 156.714844 269.550781 156.9375 270.179688 C 157.160156 270.804688 157.40625 271.425781 157.667969 272.039062 C 157.929688 272.648438 158.210938 273.253906 158.507812 273.847656 C 158.808594 274.441406 159.125 275.027344 159.460938 275.605469 C 159.792969 276.179688 160.148438 276.742188 160.515625 277.296875 C 160.886719 277.851562 161.273438 278.394531 161.675781 278.921875 C 162.078125 279.453125 162.5 279.972656 162.933594 280.476562 C 163.367188 280.980469 163.820312 281.46875 164.285156 281.945312 C 164.75 282.421875 165.230469 282.886719 165.722656 283.332031 C 166.214844 283.78125 166.722656 284.210938 167.242188 284.628906 C 167.761719 285.042969 168.296875 285.445312 168.839844 285.828125 C 169.386719 286.210938 169.941406 286.578125 170.507812 286.929688 C 171.074219 287.277344 171.652344 287.609375 172.242188 287.921875 C 172.828125 288.238281 173.425781 288.53125 174.03125 288.808594 C 174.636719 289.089844 175.25 289.347656 175.871094 289.585938 C 176.492188 289.824219 177.121094 290.046875 177.757812 290.246094 C 178.394531 290.449219 179.035156 290.628906 179.679688 290.792969 C 180.328125 290.953125 180.976562 291.097656 181.632812 291.21875 C 182.289062 291.339844 182.945312 291.441406 183.609375 291.523438 C 184.269531 291.605469 184.933594 291.667969 185.597656 291.707031 C 186.261719 291.746094 186.929688 291.769531 187.59375 291.769531 C 188.261719 291.769531 188.925781 291.746094 189.59375 291.707031 C 190.257812 291.667969 190.921875 291.605469 191.582031 291.523438 C 192.242188 291.441406 192.902344 291.339844 193.558594 291.21875 C 194.210938 291.097656 194.863281 290.953125 195.511719 290.792969 C 196.15625 290.628906 196.796875 290.449219 197.433594 290.246094 C 198.066406 290.046875 198.695312 289.824219 199.316406 289.585938 C 199.941406 289.347656 200.554688 289.089844 201.160156 288.808594 C 201.765625 288.53125 202.363281 288.238281 202.949219 287.921875 C 203.539062 287.609375 204.113281 287.277344 204.683594 286.929688 C 205.25 286.578125 205.804688 286.210938 206.351562 285.828125 C 206.894531 285.445312 207.425781 285.042969 207.949219 284.628906 C 208.46875 284.210938 208.972656 283.78125 209.46875 283.332031 C 209.960938 282.886719 210.441406 282.421875 210.90625 281.945312 C 211.371094 281.46875 211.820312 280.980469 212.257812 280.476562 C 212.691406 279.972656 213.109375 279.453125 213.511719 278.921875 C 213.917969 278.394531 214.304688 277.851562 214.671875 277.296875 C 215.042969 276.742188 215.394531 276.179688 215.730469 275.605469 C 216.066406 275.027344 216.382812 274.441406 216.683594 273.847656 C 216.980469 273.253906 217.261719 272.648438 217.523438 272.039062 C 217.785156 271.425781 218.027344 270.804688 218.253906 270.179688 C 218.476562 269.550781 218.679688 268.917969 218.867188 268.277344 C 219.050781 267.640625 219.214844 266.996094 219.363281 266.34375 C 219.507812 265.695312 219.632812 265.042969 219.738281 264.382812 C 219.84375 263.726562 219.929688 263.066406 219.992188 262.40625 C 220.058594 261.742188 220.101562 261.078125 220.125 260.414062 C 220.148438 259.746094 220.152344 259.082031 220.136719 258.417969 C 220.117188 257.75 220.082031 257.085938 220.023438 256.421875 C 219.964844 255.761719 219.886719 255.097656 219.789062 254.441406 C 219.6875 253.78125 219.570312 253.128906 219.429688 252.476562 C 219.292969 251.824219 219.132812 251.179688 218.957031 250.539062 C 218.777344 249.894531 218.578125 249.261719 218.359375 248.632812 C 218.144531 248.003906 217.90625 247.378906 217.648438 246.765625 C 217.394531 246.152344 217.121094 245.542969 216.828125 244.945312 C 216.535156 244.347656 216.222656 243.761719 215.894531 243.183594 C 215.5625 242.601562 215.214844 242.035156 214.851562 241.476562 C 214.488281 240.921875 214.105469 240.375 213.707031 239.839844 C 213.3125 239.304688 212.898438 238.785156 212.46875 238.277344 C 212.039062 237.765625 211.59375 237.273438 211.132812 236.789062 C 210.671875 236.308594 210.195312 235.84375 209.707031 235.390625 C 209.21875 234.9375 208.714844 234.5 208.199219 234.078125 C 207.683594 233.660156 207.15625 233.253906 206.613281 232.863281 C 206.074219 232.476562 205.523438 232.101562 204.957031 231.746094 C 204.394531 231.394531 203.820312 231.054688 203.234375 230.734375 C 202.652344 230.414062 202.058594 230.113281 201.453125 229.832031 C 200.851562 229.546875 200.238281 229.28125 199.621094 229.035156 C 199 228.789062 198.375 228.5625 197.742188 228.355469 C 197.109375 228.148438 196.46875 227.960938 195.824219 227.792969 C 195.179688 227.625 194.53125 227.476562 193.875 227.347656 L 193.875 143.773438 L 246.414062 143.773438 L 246.414062 173.914062 C 245.757812 174.042969 245.105469 174.1875 244.457031 174.355469 C 243.8125 174.523438 243.167969 174.710938 242.535156 174.917969 C 241.898438 175.125 241.269531 175.351562 240.648438 175.597656 C 240.023438 175.84375 239.410156 176.109375 238.804688 176.390625 C 238.199219 176.675781 237.601562 176.976562 237.015625 177.296875 C 236.429688 177.617188 235.851562 177.953125 235.285156 178.308594 C 234.71875 178.664062 234.164062 179.039062 233.621094 179.425781 C 233.078125 179.816406 232.546875 180.222656 232.027344 180.644531 C 231.507812 181.066406 231.003906 181.503906 230.511719 181.957031 C 230.019531 182.410156 229.542969 182.878906 229.082031 183.359375 C 228.617188 183.84375 228.171875 184.339844 227.738281 184.847656 C 227.304688 185.359375 226.890625 185.878906 226.488281 186.417969 C 226.089844 186.953125 225.707031 187.5 225.339844 188.058594 C 224.972656 188.617188 224.625 189.1875 224.292969 189.765625 C 223.960938 190.347656 223.648438 190.9375 223.351562 191.535156 C 223.058594 192.136719 222.78125 192.746094 222.523438 193.359375 C 222.265625 193.976562 222.027344 194.601562 221.808594 195.234375 C 221.589844 195.863281 221.390625 196.5 221.207031 197.144531 C 221.027344 197.789062 220.867188 198.4375 220.726562 199.089844 C 220.589844 199.742188 220.46875 200.398438 220.367188 201.0625 C 220.269531 201.722656 220.1875 202.386719 220.128906 203.050781 C 220.070312 203.714844 220.03125 204.382812 220.015625 205.050781 C 219.996094 205.71875 220 206.386719 220.023438 207.054688 C 220.046875 207.722656 220.089844 208.386719 220.152344 209.054688 C 220.21875 209.71875 220.300781 210.382812 220.40625 211.039062 C 220.511719 211.699219 220.636719 212.355469 220.78125 213.007812 C 220.929688 213.660156 221.09375 214.308594 221.277344 214.949219 C 221.464844 215.59375 221.667969 216.226562 221.890625 216.859375 C 222.117188 217.488281 222.359375 218.109375 222.621094 218.722656 C 222.886719 219.339844 223.167969 219.945312 223.464844 220.542969 C 223.765625 221.140625 224.082031 221.726562 224.417969 222.304688 C 224.753906 222.882812 225.109375 223.449219 225.480469 224.003906 C 225.851562 224.5625 226.238281 225.105469 226.640625 225.636719 C 227.046875 226.167969 227.46875 226.6875 227.902344 227.195312 C 228.339844 227.703125 228.789062 228.195312 229.257812 228.671875 C 229.722656 229.152344 230.203125 229.617188 230.699219 230.066406 C 231.195312 230.515625 231.703125 230.949219 232.226562 231.367188 C 232.746094 231.785156 233.28125 232.1875 233.828125 232.570312 C 234.375 232.957031 234.933594 233.324219 235.5 233.675781 C 236.070312 234.027344 236.648438 234.359375 237.238281 234.675781 C 237.828125 234.992188 238.429688 235.289062 239.035156 235.566406 C 239.644531 235.84375 240.261719 236.105469 240.882812 236.34375 C 241.507812 236.585938 242.136719 236.808594 242.777344 237.007812 C 243.414062 237.210938 244.058594 237.394531 244.707031 237.554688 C 245.355469 237.71875 246.007812 237.863281 246.664062 237.984375 C 247.324219 238.105469 247.984375 238.207031 248.648438 238.289062 C 249.3125 238.371094 249.976562 238.433594 250.644531 238.476562 C 251.3125 238.515625 251.980469 238.535156 252.648438 238.535156 C 253.316406 238.535156 253.984375 238.515625 254.652344 238.476562 C 255.320312 238.433594 255.988281 238.371094 256.652344 238.289062 C 257.316406 238.207031 257.976562 238.105469 258.632812 237.984375 C 259.289062 237.863281 259.945312 237.71875 260.59375 237.554688 C 261.242188 237.394531 261.882812 237.210938 262.523438 237.007812 C 263.160156 236.808594 263.789062 236.585938 264.414062 236.34375 C 265.039062 236.105469 265.652344 235.84375 266.261719 235.566406 C 266.871094 235.289062 267.46875 234.992188 268.058594 234.675781 C 268.648438 234.359375 269.226562 234.027344 269.796875 233.675781 C 270.367188 233.324219 270.921875 232.957031 271.46875 232.570312 C 272.015625 232.1875 272.550781 231.785156 273.074219 231.367188 C 273.59375 230.949219 274.101562 230.515625 274.597656 230.066406 C 275.09375 229.617188 275.574219 229.152344 276.039062 228.671875 C 276.507812 228.195312 276.957031 227.703125 277.394531 227.195312 C 277.832031 226.6875 278.25 226.167969 278.65625 225.636719 C 279.058594 225.105469 279.449219 224.5625 279.820312 224.003906 C 280.1875 223.449219 280.542969 222.882812 280.878906 222.304688 C 281.214844 221.726562 281.53125 221.140625 281.832031 220.542969 C 282.132812 219.945312 282.414062 219.339844 282.675781 218.722656 C 282.9375 218.109375 283.183594 217.488281 283.40625 216.859375 C 283.628906 216.226562 283.835938 215.59375 284.019531 214.949219 C 284.203125 214.308594 284.371094 213.660156 284.515625 213.007812 C 284.660156 212.355469 284.785156 211.699219 284.890625 211.039062 C 284.996094 210.382812 285.082031 209.71875 285.144531 209.054688 C 285.207031 208.386719 285.253906 207.722656 285.277344 207.054688 C 285.296875 206.386719 285.300781 205.71875 285.285156 205.050781 C 285.265625 204.382812 285.226562 203.714844 285.167969 203.050781 C 285.109375 202.386719 285.03125 201.722656 284.929688 201.0625 C 284.828125 200.398438 284.710938 199.742188 284.570312 199.089844 C 284.429688 198.4375 284.269531 197.789062 284.089844 197.144531 C 283.910156 196.5 283.710938 195.863281 283.492188 195.234375 C 283.269531 194.601562 283.03125 193.976562 282.773438 193.359375 C 282.515625 192.746094 282.242188 192.136719 281.945312 191.535156 C 281.652344 190.9375 281.335938 190.347656 281.007812 189.765625 C 280.675781 189.1875 280.324219 188.617188 279.960938 188.058594 C 279.59375 187.5 279.210938 186.953125 278.808594 186.417969 C 278.410156 185.878906 277.992188 185.359375 277.558594 184.847656 C 277.128906 184.339844 276.679688 183.84375 276.21875 183.359375 C 275.753906 182.878906 275.277344 182.410156 274.785156 181.957031 C 274.292969 181.503906 273.789062 181.066406 273.269531 180.644531 C 272.753906 180.222656 272.222656 179.816406 271.679688 179.425781 C 271.132812 179.039062 270.578125 178.664062 270.011719 178.308594 C 269.445312 177.953125 268.871094 177.617188 268.28125 177.296875 C 267.695312 176.976562 267.097656 176.675781 266.492188 176.390625 C 265.886719 176.109375 265.273438 175.84375 264.652344 175.597656 C 264.03125 175.351562 263.402344 175.125 262.765625 174.917969 C 262.128906 174.710938 261.488281 174.523438 260.839844 174.355469 C 260.191406 174.1875 259.539062 174.042969 258.882812 173.914062 L 258.882812 143.773438 L 260.5 143.773438 L 312.46875 191.980469 L 312.46875 233.148438 C 311.8125 233.273438 311.160156 233.421875 310.511719 233.589844 C 309.863281 233.757812 309.222656 233.945312 308.585938 234.152344 C 307.949219 234.359375 307.320312 234.585938 306.699219 234.832031 C 306.078125 235.078125 305.464844 235.339844 304.859375 235.625 C 304.253906 235.90625 303.65625 236.210938 303.070312 236.527344 C 302.480469 236.847656 301.90625 237.1875 301.339844 237.542969 C 300.773438 237.898438 300.21875 238.269531 299.671875 238.660156 C 299.128906 239.050781 298.597656 239.453125 298.082031 239.875 C 297.5625 240.296875 297.058594 240.738281 296.566406 241.1875 C 296.074219 241.640625 295.597656 242.109375 295.132812 242.59375 C 294.671875 243.074219 294.222656 243.570312 293.792969 244.082031 C 293.359375 244.589844 292.941406 245.113281 292.542969 245.648438 C 292.140625 246.183594 291.757812 246.730469 291.390625 247.289062 C 291.027344 247.847656 290.675781 248.417969 290.34375 249 C 290.015625 249.578125 289.699219 250.167969 289.40625 250.769531 C 289.109375 251.367188 288.835938 251.976562 288.578125 252.59375 C 288.320312 253.210938 288.082031 253.835938 287.859375 254.464844 C 287.640625 255.097656 287.441406 255.734375 287.261719 256.378906 C 287.082031 257.019531 286.921875 257.667969 286.78125 258.324219 C 286.640625 258.976562 286.519531 259.632812 286.421875 260.292969 C 286.320312 260.953125 286.242188 261.617188 286.183594 262.28125 C 286.125 262.949219 286.085938 263.617188 286.066406 264.285156 C 286.050781 264.953125 286.054688 265.617188 286.074219 266.285156 C 286.097656 266.953125 286.144531 267.621094 286.207031 268.285156 C 286.269531 268.953125 286.355469 269.613281 286.460938 270.273438 C 286.566406 270.933594 286.691406 271.589844 286.835938 272.242188 C 286.980469 272.894531 287.148438 273.542969 287.332031 274.183594 C 287.515625 274.824219 287.722656 275.460938 287.945312 276.089844 C 288.167969 276.71875 288.414062 277.34375 288.675781 277.957031 C 288.9375 278.570312 289.21875 279.175781 289.519531 279.773438 C 289.820312 280.371094 290.136719 280.960938 290.472656 281.535156 C 290.808594 282.113281 291.160156 282.683594 291.53125 283.238281 C 291.902344 283.792969 292.292969 284.339844 292.695312 284.871094 C 293.101562 285.402344 293.519531 285.921875 293.957031 286.429688 C 294.394531 286.933594 294.84375 287.425781 295.3125 287.90625 C 295.777344 288.386719 296.257812 288.847656 296.753906 289.296875 C 297.25 289.746094 297.757812 290.179688 298.277344 290.597656 C 298.800781 291.015625 299.335938 291.417969 299.882812 291.804688 C 300.429688 292.1875 300.984375 292.558594 301.554688 292.910156 C 302.125 293.257812 302.703125 293.59375 303.292969 293.90625 C 303.882812 294.222656 304.480469 294.519531 305.089844 294.796875 C 305.699219 295.078125 306.3125 295.335938 306.9375 295.578125 C 307.5625 295.820312 308.191406 296.039062 308.828125 296.242188 C 309.46875 296.445312 310.109375 296.625 310.757812 296.789062 C 311.40625 296.953125 312.0625 297.09375 312.71875 297.214844 C 313.375 297.339844 314.035156 297.441406 314.699219 297.523438 C 315.363281 297.605469 316.03125 297.667969 316.699219 297.707031 C 317.367188 297.75 318.035156 297.769531 318.703125 297.769531 C 319.371094 297.769531 320.039062 297.75 320.707031 297.707031 C 321.375 297.667969 322.039062 297.605469 322.703125 297.523438 C 323.367188 297.441406 324.027344 297.339844 324.6875 297.214844 C 325.34375 297.09375 325.996094 296.953125 326.644531 296.789062 C 327.292969 296.625 327.9375 296.445312 328.574219 296.242188 C 329.210938 296.039062 329.84375 295.820312 330.46875 295.578125 C 331.089844 295.335938 331.707031 295.078125 332.316406 294.796875 C 332.921875 294.519531 333.523438 294.222656 334.113281 293.90625 C 334.703125 293.59375 335.28125 293.257812 335.851562 292.90625 C 336.417969 292.558594 336.976562 292.1875 337.523438 291.804688 C 338.070312 291.417969 338.605469 291.015625 339.125 290.597656 C 339.648438 290.179688 340.15625 289.746094 340.652344 289.296875 C 341.148438 288.847656 341.628906 288.386719 342.09375 287.90625 C 342.5625 287.425781 343.011719 286.933594 343.449219 286.429688 C 343.882812 285.921875 344.304688 285.402344 344.710938 284.871094 C 345.113281 284.339844 345.5 283.792969 345.871094 283.238281 C 346.242188 282.683594 346.597656 282.113281 346.933594 281.535156 C 347.269531 280.960938 347.585938 280.371094 347.886719 279.773438 C 348.183594 279.175781 348.464844 278.570312 348.730469 277.957031 C 348.992188 277.34375 349.234375 276.71875 349.460938 276.089844 C 349.683594 275.460938 349.886719 274.824219 350.074219 274.183594 C 350.257812 273.542969 350.421875 272.894531 350.570312 272.242188 C 350.714844 271.589844 350.839844 270.933594 350.945312 270.273438 C 351.050781 269.613281 351.132812 268.953125 351.199219 268.285156 C 351.261719 267.621094 351.304688 266.953125 351.328125 266.285156 C 351.351562 265.617188 351.355469 264.953125 351.335938 264.285156 C 351.320312 263.617188 351.28125 262.949219 351.222656 262.28125 C 351.164062 261.617188 351.082031 260.953125 350.984375 260.292969 C 350.882812 259.632812 350.761719 258.976562 350.625 258.324219 C 350.484375 257.667969 350.324219 257.019531 350.144531 256.378906 C 349.960938 255.734375 349.761719 255.097656 349.542969 254.464844 C 349.324219 253.835938 349.085938 253.210938 348.828125 252.59375 C 348.570312 251.976562 348.292969 251.367188 348 250.769531 C 347.703125 250.167969 347.390625 249.578125 347.058594 249 C 346.726562 248.417969 346.378906 247.847656 346.011719 247.289062 C 345.644531 246.730469 345.261719 246.183594 344.863281 245.648438 C 344.460938 245.113281 344.046875 244.589844 343.613281 244.082031 C 343.179688 243.570312 342.734375 243.074219 342.269531 242.59375 C 341.808594 242.109375 341.332031 241.640625 340.839844 241.1875 C 340.347656 240.738281 339.84375 240.296875 339.324219 239.875 C 338.804688 239.453125 338.273438 239.050781 337.730469 238.660156 C 337.1875 238.269531 336.632812 237.898438 336.066406 237.542969 C 335.5 237.1875 334.921875 236.847656 334.335938 236.527344 C 333.75 236.210938 333.152344 235.90625 332.546875 235.625 C 331.941406 235.339844 331.328125 235.078125 330.703125 234.832031 C 330.082031 234.585938 329.453125 234.359375 328.816406 234.152344 C 328.183594 233.945312 327.539062 233.757812 326.894531 233.589844 C 326.246094 233.421875 325.59375 233.273438 324.9375 233.148438 Z M 252.601562 185.609375 C 253.261719 185.605469 253.917969 185.632812 254.574219 185.695312 C 255.230469 185.757812 255.882812 185.851562 256.527344 185.976562 C 257.175781 186.101562 257.816406 186.257812 258.445312 186.449219 C 259.078125 186.636719 259.699219 186.855469 260.308594 187.105469 C 260.917969 187.355469 261.515625 187.632812 262.097656 187.941406 C 262.679688 188.25 263.246094 188.585938 263.792969 188.949219 C 264.34375 189.3125 264.875 189.703125 265.382812 190.121094 C 265.894531 190.535156 266.382812 190.976562 266.851562 191.4375 C 267.320312 191.902344 267.761719 192.390625 268.183594 192.898438 C 268.601562 193.40625 268.996094 193.933594 269.363281 194.476562 C 269.730469 195.023438 270.070312 195.585938 270.382812 196.167969 C 270.695312 196.746094 270.976562 197.339844 271.230469 197.949219 C 271.484375 198.554688 271.707031 199.175781 271.902344 199.804688 C 272.09375 200.433594 272.253906 201.070312 272.386719 201.71875 C 272.515625 202.363281 272.613281 203.011719 272.679688 203.667969 C 272.746094 204.324219 272.777344 204.980469 272.777344 205.636719 C 272.78125 206.296875 272.75 206.953125 272.683594 207.609375 C 272.621094 208.261719 272.527344 208.914062 272.398438 209.558594 C 272.269531 210.207031 272.109375 210.84375 271.917969 211.472656 C 271.730469 212.105469 271.507812 212.722656 271.257812 213.332031 C 271.003906 213.941406 270.722656 214.535156 270.414062 215.117188 C 270.101562 215.695312 269.765625 216.261719 269.398438 216.808594 C 269.03125 217.355469 268.640625 217.882812 268.222656 218.394531 C 267.804688 218.902344 267.363281 219.390625 266.898438 219.855469 C 266.429688 220.320312 265.941406 220.761719 265.433594 221.179688 C 264.925781 221.597656 264.394531 221.988281 263.847656 222.355469 C 263.300781 222.71875 262.734375 223.058594 262.152344 223.367188 C 261.570312 223.675781 260.976562 223.957031 260.367188 224.210938 C 259.757812 224.460938 259.136719 224.683594 258.507812 224.871094 C 257.875 225.0625 257.238281 225.222656 256.589844 225.351562 C 255.945312 225.476562 255.292969 225.574219 254.636719 225.636719 C 253.980469 225.699219 253.324219 225.730469 252.664062 225.730469 C 252.003906 225.730469 251.347656 225.695312 250.691406 225.628906 C 250.035156 225.566406 249.386719 225.46875 248.738281 225.335938 C 248.09375 225.207031 247.457031 225.046875 246.824219 224.855469 C 246.195312 224.660156 245.574219 224.4375 244.96875 224.183594 C 244.359375 223.933594 243.765625 223.648438 243.183594 223.335938 C 242.605469 223.027344 242.039062 222.6875 241.492188 222.320312 C 240.945312 221.953125 240.417969 221.558594 239.910156 221.140625 C 239.402344 220.71875 238.914062 220.277344 238.453125 219.808594 C 237.988281 219.34375 237.546875 218.855469 237.128906 218.34375 C 236.714844 217.832031 236.324219 217.304688 235.960938 216.753906 C 235.59375 216.207031 235.257812 215.640625 234.949219 215.058594 C 234.640625 214.476562 234.363281 213.882812 234.113281 213.273438 C 233.863281 212.664062 233.644531 212.042969 233.453125 211.414062 C 233.265625 210.78125 233.109375 210.144531 232.984375 209.496094 C 232.855469 208.851562 232.761719 208.199219 232.703125 207.546875 C 232.640625 206.890625 232.609375 206.234375 232.613281 205.574219 C 232.621094 204.925781 232.65625 204.277344 232.726562 203.628906 C 232.796875 202.984375 232.898438 202.34375 233.03125 201.707031 C 233.164062 201.070312 233.324219 200.441406 233.519531 199.820312 C 233.710938 199.199219 233.9375 198.589844 234.191406 197.992188 C 234.441406 197.394531 234.726562 196.808594 235.035156 196.238281 C 235.347656 195.667969 235.683594 195.113281 236.046875 194.574219 C 236.414062 194.035156 236.804688 193.515625 237.21875 193.015625 C 237.632812 192.515625 238.074219 192.035156 238.535156 191.578125 C 238.996094 191.121094 239.480469 190.6875 239.984375 190.277344 C 240.488281 189.867188 241.011719 189.484375 241.554688 189.125 C 242.097656 188.765625 242.65625 188.433594 243.230469 188.128906 C 243.804688 187.824219 244.394531 187.546875 244.996094 187.300781 C 245.597656 187.054688 246.210938 186.835938 246.832031 186.648438 C 247.457031 186.460938 248.085938 186.304688 248.726562 186.175781 C 249.363281 186.050781 250.007812 185.957031 250.652344 185.894531 C 251.300781 185.832031 251.949219 185.796875 252.601562 185.796875 Z M 187.59375 239.042969 C 188.253906 239.042969 188.910156 239.074219 189.5625 239.136719 C 190.21875 239.203125 190.867188 239.300781 191.511719 239.425781 C 192.15625 239.554688 192.796875 239.714844 193.425781 239.90625 C 194.054688 240.097656 194.671875 240.316406 195.28125 240.570312 C 195.886719 240.820312 196.480469 241.101562 197.0625 241.410156 C 197.640625 241.71875 198.207031 242.058594 198.753906 242.421875 C 199.300781 242.789062 199.828125 243.179688 200.335938 243.59375 C 200.84375 244.011719 201.332031 244.453125 201.796875 244.917969 C 202.261719 245.382812 202.703125 245.867188 203.121094 246.375 C 203.535156 246.882812 203.925781 247.410156 204.292969 247.957031 C 204.660156 248.503906 204.996094 249.066406 205.304688 249.644531 C 205.617188 250.226562 205.898438 250.820312 206.148438 251.425781 C 206.402344 252.03125 206.621094 252.652344 206.8125 253.277344 C 207.003906 253.90625 207.164062 254.542969 207.292969 255.1875 C 207.421875 255.832031 207.515625 256.484375 207.582031 257.136719 C 207.644531 257.789062 207.675781 258.445312 207.675781 259.101562 C 207.675781 259.757812 207.644531 260.414062 207.582031 261.070312 C 207.515625 261.722656 207.421875 262.371094 207.292969 263.015625 C 207.164062 263.660156 207.003906 264.296875 206.8125 264.925781 C 206.621094 265.554688 206.402344 266.171875 206.148438 266.78125 C 205.898438 267.386719 205.617188 267.980469 205.304688 268.558594 C 204.996094 269.140625 204.660156 269.703125 204.292969 270.25 C 203.925781 270.792969 203.535156 271.320312 203.121094 271.828125 C 202.703125 272.335938 202.261719 272.824219 201.796875 273.289062 C 201.332031 273.753906 200.84375 274.191406 200.335938 274.609375 C 199.828125 275.027344 199.300781 275.417969 198.753906 275.78125 C 198.207031 276.148438 197.640625 276.484375 197.0625 276.796875 C 196.480469 277.105469 195.886719 277.386719 195.28125 277.636719 C 194.671875 277.886719 194.054688 278.109375 193.425781 278.300781 C 192.796875 278.492188 192.15625 278.648438 191.511719 278.777344 C 190.867188 278.90625 190.21875 279.003906 189.5625 279.066406 C 188.910156 279.132812 188.253906 279.164062 187.59375 279.164062 C 186.9375 279.164062 186.28125 279.132812 185.625 279.066406 C 184.972656 279.003906 184.324219 278.90625 183.675781 278.777344 C 183.03125 278.648438 182.394531 278.492188 181.765625 278.300781 C 181.136719 278.109375 180.515625 277.886719 179.910156 277.636719 C 179.300781 277.386719 178.707031 277.105469 178.128906 276.796875 C 177.546875 276.484375 176.984375 276.148438 176.4375 275.78125 C 175.890625 275.417969 175.363281 275.027344 174.855469 274.609375 C 174.347656 274.191406 173.859375 273.753906 173.394531 273.289062 C 172.929688 272.824219 172.488281 272.335938 172.070312 271.828125 C 171.652344 271.320312 171.261719 270.792969 170.898438 270.25 C 170.53125 269.703125 170.195312 269.140625 169.882812 268.558594 C 169.574219 267.980469 169.292969 267.386719 169.042969 266.78125 C 168.789062 266.171875 168.566406 265.554688 168.378906 264.925781 C 168.1875 264.296875 168.027344 263.660156 167.898438 263.015625 C 167.769531 262.371094 167.675781 261.722656 167.609375 261.070312 C 167.542969 260.414062 167.511719 259.757812 167.511719 259.101562 C 167.515625 258.449219 167.550781 257.796875 167.617188 257.144531 C 167.683594 256.496094 167.785156 255.851562 167.914062 255.210938 C 168.046875 254.570312 168.207031 253.9375 168.402344 253.3125 C 168.59375 252.6875 168.816406 252.070312 169.070312 251.46875 C 169.324219 250.867188 169.605469 250.277344 169.917969 249.703125 C 170.230469 249.125 170.566406 248.566406 170.933594 248.027344 C 171.300781 247.484375 171.691406 246.960938 172.109375 246.457031 C 172.527344 245.953125 172.96875 245.472656 173.433594 245.011719 C 173.898438 244.550781 174.386719 244.117188 174.894531 243.703125 C 175.402344 243.289062 175.929688 242.90625 176.476562 242.542969 C 177.019531 242.183594 177.582031 241.851562 178.160156 241.542969 C 178.742188 241.238281 179.332031 240.960938 179.9375 240.714844 C 180.546875 240.46875 181.160156 240.25 181.789062 240.0625 C 182.417969 239.875 183.050781 239.722656 183.695312 239.597656 C 184.335938 239.472656 184.984375 239.378906 185.636719 239.320312 C 186.289062 239.257812 186.941406 239.230469 187.59375 239.230469 Z M 122.492188 185.609375 C 123.152344 185.605469 123.808594 185.632812 124.464844 185.695312 C 125.121094 185.757812 125.773438 185.851562 126.421875 185.976562 C 127.066406 186.101562 127.707031 186.257812 128.339844 186.449219 C 128.96875 186.636719 129.589844 186.855469 130.199219 187.105469 C 130.808594 187.355469 131.40625 187.632812 131.988281 187.941406 C 132.570312 188.25 133.136719 188.585938 133.6875 188.949219 C 134.234375 189.3125 134.765625 189.703125 135.277344 190.121094 C 135.789062 190.535156 136.277344 190.976562 136.746094 191.4375 C 137.210938 191.902344 137.65625 192.390625 138.074219 192.898438 C 138.496094 193.40625 138.886719 193.933594 139.253906 194.476562 C 139.625 195.023438 139.964844 195.585938 140.277344 196.167969 C 140.585938 196.746094 140.871094 197.339844 141.125 197.949219 C 141.378906 198.554688 141.601562 199.175781 141.792969 199.804688 C 141.984375 200.433594 142.148438 201.070312 142.277344 201.71875 C 142.40625 202.363281 142.503906 203.011719 142.570312 203.667969 C 142.636719 204.324219 142.671875 204.980469 142.671875 205.636719 C 142.671875 206.296875 142.640625 206.953125 142.578125 207.609375 C 142.511719 208.261719 142.417969 208.914062 142.289062 209.558594 C 142.160156 210.207031 142.003906 210.84375 141.8125 211.472656 C 141.621094 212.105469 141.398438 212.722656 141.148438 213.332031 C 140.898438 213.941406 140.617188 214.535156 140.304688 215.117188 C 139.996094 215.695312 139.65625 216.261719 139.289062 216.808594 C 138.925781 217.355469 138.53125 217.882812 138.113281 218.394531 C 137.695312 218.902344 137.253906 219.390625 136.789062 219.855469 C 136.324219 220.320312 135.835938 220.761719 135.324219 221.179688 C 134.816406 221.597656 134.289062 221.988281 133.738281 222.355469 C 133.191406 222.71875 132.625 223.058594 132.046875 223.367188 C 131.464844 223.675781 130.867188 223.957031 130.257812 224.210938 C 129.648438 224.460938 129.03125 224.683594 128.398438 224.871094 C 127.769531 225.0625 127.128906 225.222656 126.484375 225.351562 C 125.835938 225.476562 125.183594 225.574219 124.53125 225.636719 C 123.875 225.699219 123.214844 225.730469 122.558594 225.730469 C 121.898438 225.730469 121.242188 225.695312 120.585938 225.628906 C 119.929688 225.566406 119.277344 225.46875 118.632812 225.335938 C 117.984375 225.207031 117.347656 225.046875 116.71875 224.855469 C 116.085938 224.660156 115.46875 224.4375 114.859375 224.183594 C 114.25 223.933594 113.65625 223.648438 113.078125 223.335938 C 112.496094 223.027344 111.933594 222.6875 111.386719 222.320312 C 110.839844 221.953125 110.3125 221.558594 109.800781 221.140625 C 109.292969 220.71875 108.808594 220.277344 108.34375 219.808594 C 107.878906 219.34375 107.4375 218.855469 107.023438 218.34375 C 106.605469 217.832031 106.214844 217.304688 105.851562 216.753906 C 105.488281 216.207031 105.152344 215.640625 104.84375 215.058594 C 104.535156 214.476562 104.253906 213.882812 104.003906 213.273438 C 103.753906 212.664062 103.535156 212.042969 103.347656 211.414062 C 103.160156 210.78125 103 210.144531 102.875 209.496094 C 102.75 208.851562 102.65625 208.199219 102.59375 207.546875 C 102.53125 206.890625 102.503906 206.234375 102.507812 205.574219 C 102.515625 204.925781 102.554688 204.277344 102.628906 203.632812 C 102.699219 202.988281 102.804688 202.347656 102.9375 201.714844 C 103.074219 201.078125 103.238281 200.449219 103.433594 199.832031 C 103.628906 199.210938 103.851562 198.605469 104.105469 198.007812 C 104.359375 197.410156 104.644531 196.824219 104.953125 196.257812 C 105.265625 195.6875 105.605469 195.132812 105.96875 194.59375 C 106.332031 194.058594 106.722656 193.539062 107.140625 193.039062 C 107.554688 192.542969 107.992188 192.0625 108.453125 191.605469 C 108.917969 191.148438 109.398438 190.714844 109.902344 190.304688 C 110.40625 189.894531 110.929688 189.511719 111.46875 189.152344 C 112.011719 188.792969 112.570312 188.460938 113.140625 188.15625 C 113.714844 187.851562 114.300781 187.574219 114.902344 187.324219 C 115.503906 187.078125 116.113281 186.859375 116.734375 186.667969 C 117.359375 186.480469 117.988281 186.320312 118.625 186.191406 C 119.261719 186.066406 119.902344 185.96875 120.550781 185.902344 C 121.195312 185.835938 121.84375 185.800781 122.492188 185.796875 Z M 56.441406 285.25 C 55.78125 285.261719 55.121094 285.242188 54.464844 285.1875 C 53.808594 285.136719 53.152344 285.050781 52.503906 284.933594 C 51.855469 284.820312 51.214844 284.671875 50.578125 284.492188 C 49.945312 284.3125 49.320312 284.101562 48.707031 283.859375 C 48.09375 283.617188 47.492188 283.347656 46.902344 283.046875 C 46.316406 282.746094 45.746094 282.417969 45.191406 282.058594 C 44.636719 281.703125 44.101562 281.320312 43.582031 280.910156 C 43.066406 280.503906 42.570312 280.066406 42.097656 279.609375 C 41.625 279.152344 41.171875 278.671875 40.746094 278.167969 C 40.320312 277.667969 39.917969 277.144531 39.542969 276.601562 C 39.167969 276.058594 38.820312 275.5 38.5 274.925781 C 38.179688 274.347656 37.890625 273.757812 37.625 273.152344 C 37.363281 272.546875 37.132812 271.933594 36.933594 271.304688 C 36.730469 270.675781 36.5625 270.042969 36.421875 269.398438 C 36.285156 268.753906 36.179688 268.101562 36.105469 267.449219 C 36.03125 266.792969 35.988281 266.136719 35.980469 265.476562 C 35.96875 264.820312 35.992188 264.160156 36.046875 263.503906 C 36.105469 262.847656 36.191406 262.195312 36.3125 261.546875 C 36.429688 260.898438 36.582031 260.257812 36.765625 259.625 C 36.949219 258.992188 37.164062 258.371094 37.40625 257.757812 C 37.652344 257.144531 37.925781 256.546875 38.230469 255.960938 C 38.53125 255.375 38.863281 254.808594 39.222656 254.253906 C 39.582031 253.703125 39.96875 253.167969 40.382812 252.65625 C 40.792969 252.140625 41.230469 251.648438 41.691406 251.175781 C 42.152344 250.703125 42.636719 250.257812 43.140625 249.832031 C 43.644531 249.410156 44.167969 249.011719 44.714844 248.636719 C 45.257812 248.265625 45.820312 247.921875 46.398438 247.605469 C 46.976562 247.289062 47.570312 247 48.175781 246.742188 C 48.78125 246.480469 49.398438 246.253906 50.03125 246.054688 C 50.660156 245.859375 51.296875 245.691406 51.941406 245.554688 C 52.585938 245.421875 53.238281 245.316406 53.894531 245.246094 C 54.550781 245.175781 55.207031 245.136719 55.867188 245.132812 C 56.527344 245.125 57.183594 245.152344 57.84375 245.210938 C 58.5 245.269531 59.152344 245.359375 59.800781 245.480469 C 60.449219 245.605469 61.089844 245.757812 61.722656 245.945312 C 62.355469 246.128906 62.976562 246.347656 63.589844 246.59375 C 64.199219 246.839844 64.796875 247.117188 65.382812 247.421875 C 65.964844 247.726562 66.535156 248.0625 67.085938 248.425781 C 67.636719 248.785156 68.167969 249.171875 68.683594 249.589844 C 69.195312 250.003906 69.6875 250.441406 70.15625 250.902344 C 70.625 251.367188 71.074219 251.851562 71.496094 252.355469 C 71.917969 252.863281 72.3125 253.390625 72.683594 253.933594 C 73.054688 254.480469 73.394531 255.042969 73.710938 255.621094 C 74.023438 256.199219 74.308594 256.792969 74.566406 257.402344 C 74.824219 258.007812 75.046875 258.628906 75.242188 259.257812 C 75.4375 259.886719 75.601562 260.523438 75.734375 261.167969 C 75.867188 261.816406 75.96875 262.464844 76.035156 263.121094 C 76.101562 263.777344 76.140625 264.433594 76.140625 265.09375 C 76.148438 265.746094 76.121094 266.394531 76.066406 267.042969 C 76.007812 267.695312 75.917969 268.339844 75.796875 268.980469 C 75.675781 269.621094 75.523438 270.253906 75.34375 270.878906 C 75.160156 271.503906 74.945312 272.121094 74.703125 272.726562 C 74.460938 273.332031 74.1875 273.921875 73.886719 274.5 C 73.585938 275.078125 73.257812 275.640625 72.898438 276.1875 C 72.542969 276.734375 72.160156 277.261719 71.753906 277.769531 C 71.34375 278.277344 70.914062 278.765625 70.457031 279.234375 C 70 279.699219 69.523438 280.144531 69.023438 280.5625 C 68.523438 280.984375 68.003906 281.375 67.46875 281.746094 C 66.929688 282.113281 66.375 282.457031 65.800781 282.769531 C 65.230469 283.085938 64.644531 283.371094 64.046875 283.628906 C 63.445312 283.886719 62.835938 284.113281 62.214844 284.3125 C 61.589844 284.507812 60.960938 284.675781 60.324219 284.8125 C 59.683594 284.949219 59.039062 285.050781 58.390625 285.125 C 57.742188 285.199219 57.09375 285.238281 56.441406 285.25 Z M 84.421875 102.703125 L 290.769531 102.703125 L 290.769531 131.226562 L 84.421875 131.226562 Z M 318.65625 285.25 C 317.996094 285.25 317.339844 285.214844 316.683594 285.152344 C 316.027344 285.085938 315.378906 284.992188 314.734375 284.863281 C 314.085938 284.734375 313.449219 284.574219 312.820312 284.382812 C 312.191406 284.191406 311.570312 283.96875 310.960938 283.71875 C 310.355469 283.464844 309.761719 283.183594 309.179688 282.875 C 308.597656 282.566406 308.035156 282.226562 307.488281 281.859375 C 306.941406 281.496094 306.414062 281.105469 305.902344 280.6875 C 305.394531 280.269531 304.910156 279.828125 304.441406 279.363281 C 303.976562 278.894531 303.535156 278.410156 303.121094 277.898438 C 302.703125 277.390625 302.3125 276.863281 301.945312 276.316406 C 301.582031 275.769531 301.242188 275.207031 300.933594 274.625 C 300.625 274.042969 300.34375 273.449219 300.09375 272.84375 C 299.839844 272.234375 299.621094 271.617188 299.429688 270.984375 C 299.238281 270.355469 299.082031 269.71875 298.953125 269.074219 C 298.824219 268.429688 298.730469 267.777344 298.667969 267.125 C 298.601562 266.46875 298.570312 265.8125 298.574219 265.15625 C 298.574219 264.496094 298.605469 263.84375 298.671875 263.1875 C 298.738281 262.53125 298.835938 261.882812 298.964844 261.238281 C 299.09375 260.59375 299.257812 259.957031 299.449219 259.328125 C 299.640625 258.699219 299.863281 258.082031 300.117188 257.472656 C 300.371094 256.867188 300.652344 256.273438 300.964844 255.695312 C 301.273438 255.113281 301.613281 254.550781 301.980469 254.007812 C 302.347656 253.460938 302.742188 252.933594 303.160156 252.425781 C 303.578125 251.917969 304.023438 251.433594 304.488281 250.96875 C 304.953125 250.503906 305.441406 250.066406 305.953125 249.648438 C 306.464844 249.234375 306.992188 248.84375 307.539062 248.480469 C 308.089844 248.113281 308.652344 247.777344 309.234375 247.46875 C 309.816406 247.160156 310.414062 246.882812 311.019531 246.632812 C 311.628906 246.382812 312.25 246.164062 312.878906 245.972656 C 313.511719 245.785156 314.148438 245.625 314.796875 245.5 C 315.441406 245.375 316.09375 245.28125 316.746094 245.21875 C 317.402344 245.15625 318.058594 245.125 318.71875 245.125 C 319.378906 245.128906 320.035156 245.164062 320.6875 245.230469 C 321.34375 245.296875 321.992188 245.394531 322.640625 245.523438 C 323.285156 245.65625 323.921875 245.816406 324.550781 246.011719 C 325.179688 246.203125 325.800781 246.425781 326.40625 246.679688 C 327.011719 246.933594 327.605469 247.21875 328.1875 247.53125 C 328.765625 247.84375 329.328125 248.183594 329.875 248.550781 C 330.421875 248.917969 330.949219 249.308594 331.453125 249.730469 C 331.960938 250.148438 332.449219 250.589844 332.910156 251.058594 C 333.375 251.523438 333.816406 252.015625 334.230469 252.523438 C 334.644531 253.035156 335.035156 253.5625 335.398438 254.113281 C 335.761719 254.660156 336.097656 255.226562 336.40625 255.804688 C 336.714844 256.386719 336.992188 256.980469 337.242188 257.589844 C 337.492188 258.199219 337.710938 258.820312 337.898438 259.449219 C 338.085938 260.078125 338.242188 260.71875 338.371094 261.363281 C 338.496094 262.007812 338.589844 262.660156 338.648438 263.3125 C 338.710938 263.96875 338.742188 264.625 338.738281 265.28125 C 338.738281 265.9375 338.703125 266.59375 338.640625 267.246094 C 338.574219 267.898438 338.480469 268.546875 338.351562 269.191406 C 338.222656 269.832031 338.0625 270.46875 337.871094 271.09375 C 337.679688 271.722656 337.457031 272.339844 337.207031 272.945312 C 336.953125 273.550781 336.671875 274.144531 336.363281 274.722656 C 336.054688 275.300781 335.714844 275.859375 335.347656 276.40625 C 334.984375 276.949219 334.589844 277.476562 334.175781 277.980469 C 333.757812 278.488281 333.316406 278.972656 332.847656 279.433594 C 332.382812 279.898438 331.898438 280.335938 331.386719 280.75 C 330.878906 281.164062 330.351562 281.554688 329.804688 281.917969 C 329.257812 282.28125 328.695312 282.613281 328.113281 282.921875 C 327.535156 283.230469 326.941406 283.507812 326.332031 283.757812 C 325.726562 284.003906 325.105469 284.222656 324.476562 284.410156 C 323.847656 284.597656 323.210938 284.757812 322.566406 284.882812 C 321.921875 285.007812 321.273438 285.101562 320.621094 285.160156 C 319.964844 285.222656 319.3125 285.25 318.65625 285.25 Z M 318.65625 285.25 " fill-opacity="1" fill-rule="nonzero"/></g><path fill="rgb(92.939758%, 53.329468%, 53.329468%)" d="M 368.910156 0.0195312 L 6.28125 0.0195312 C 5.867188 0.0117188 5.457031 0.046875 5.050781 0.125 C 4.640625 0.199219 4.246094 0.316406 3.863281 0.46875 C 3.480469 0.625 3.113281 0.816406 2.769531 1.046875 C 2.421875 1.273438 2.105469 1.535156 1.8125 1.828125 C 1.519531 2.121094 1.257812 2.441406 1.027344 2.785156 C 0.800781 3.128906 0.609375 3.492188 0.453125 3.878906 C 0.296875 4.261719 0.179688 4.65625 0.105469 5.0625 C 0.0273438 5.46875 -0.0078125 5.878906 0 6.292969 L 0 205.953125 C -0.0078125 206.367188 0.0273438 206.777344 0.105469 207.1875 C 0.179688 207.59375 0.296875 207.988281 0.453125 208.371094 C 0.609375 208.753906 0.800781 209.121094 1.027344 209.464844 C 1.257812 209.808594 1.519531 210.128906 1.8125 210.421875 C 2.105469 210.714844 2.421875 210.972656 2.769531 211.203125 C 3.113281 211.429688 3.480469 211.621094 3.863281 211.777344 C 4.246094 211.933594 4.640625 212.050781 5.050781 212.125 C 5.457031 212.203125 5.867188 212.234375 6.28125 212.230469 C 6.695312 212.230469 7.101562 212.191406 7.507812 212.109375 C 7.910156 212.027344 8.304688 211.910156 8.6875 211.753906 C 9.066406 211.59375 9.429688 211.402344 9.773438 211.171875 C 10.113281 210.945312 10.433594 210.683594 10.722656 210.390625 C 11.015625 210.101562 11.277344 209.785156 11.503906 209.441406 C 11.734375 209.097656 11.925781 208.738281 12.085938 208.355469 C 12.242188 207.976562 12.363281 207.582031 12.441406 207.179688 C 12.523438 206.773438 12.5625 206.367188 12.5625 205.953125 L 12.5625 12.570312 L 362.625 12.570312 L 362.625 33.960938 L 85.660156 33.960938 C 85.21875 33.90625 84.777344 33.898438 84.332031 33.9375 C 83.890625 33.976562 83.453125 34.0625 83.03125 34.195312 C 82.605469 34.324219 82.199219 34.5 81.808594 34.71875 C 81.421875 34.9375 81.0625 35.191406 80.726562 35.488281 C 80.394531 35.78125 80.097656 36.109375 79.832031 36.464844 C 79.566406 36.824219 79.34375 37.203125 79.160156 37.609375 C 78.976562 38.015625 78.839844 38.433594 78.746094 38.871094 C 78.652344 39.304688 78.605469 39.746094 78.605469 40.1875 C 78.605469 40.632812 78.652344 41.074219 78.746094 41.507812 C 78.839844 41.941406 78.976562 42.363281 79.160156 42.765625 C 79.34375 43.171875 79.566406 43.554688 79.832031 43.914062 C 80.097656 44.269531 80.394531 44.597656 80.726562 44.890625 C 81.0625 45.183594 81.421875 45.441406 81.808594 45.660156 C 82.199219 45.875 82.605469 46.050781 83.03125 46.183594 C 83.453125 46.316406 83.890625 46.398438 84.332031 46.4375 C 84.777344 46.480469 85.21875 46.472656 85.660156 46.417969 L 362.625 46.417969 L 362.625 205.765625 C 362.625 206.175781 362.667969 206.585938 362.746094 206.988281 C 362.828125 207.394531 362.945312 207.785156 363.105469 208.167969 C 363.261719 208.546875 363.457031 208.910156 363.683594 209.25 C 363.914062 209.59375 364.175781 209.910156 364.464844 210.203125 C 364.757812 210.492188 365.074219 210.753906 365.417969 210.980469 C 365.761719 211.210938 366.125 211.40625 366.503906 211.5625 C 366.886719 211.71875 367.277344 211.839844 367.683594 211.917969 C 368.085938 212 368.496094 212.039062 368.910156 212.039062 C 369.320312 212.039062 369.730469 212 370.132812 211.917969 C 370.539062 211.839844 370.929688 211.71875 371.3125 211.5625 C 371.695312 211.40625 372.054688 211.210938 372.398438 210.980469 C 372.742188 210.753906 373.058594 210.492188 373.351562 210.203125 C 373.640625 209.910156 373.902344 209.59375 374.132812 209.25 C 374.359375 208.910156 374.554688 208.546875 374.710938 208.167969 C 374.871094 207.785156 374.988281 207.394531 375.070312 206.988281 C 375.148438 206.585938 375.191406 206.175781 375.191406 205.765625 L 375.191406 6.292969 C 375.191406 5.882812 375.148438 5.472656 375.070312 5.070312 C 374.988281 4.664062 374.871094 4.273438 374.710938 3.894531 C 374.554688 3.511719 374.359375 3.148438 374.132812 2.808594 C 373.902344 2.464844 373.640625 2.148438 373.351562 1.855469 C 373.058594 1.566406 372.742188 1.304688 372.398438 1.078125 C 372.054688 0.847656 371.695312 0.652344 371.3125 0.496094 C 370.929688 0.339844 370.539062 0.21875 370.132812 0.140625 C 369.730469 0.0585938 369.320312 0.0195312 368.910156 0.0195312 Z M 368.910156 0.0195312 " fill-opacity="1" fill-rule="nonzero"/><g fill="rgb(100%, 100%, 100%)" fill-opacity="1"><g transform="translate(180.276332, 124.385185)"><g><path d="M 2.277344 0.289062 L 2.277344 0.238281 L 2.445312 0.0703125 C 2.566406 -0.046875 2.710938 -0.191406 2.878906 -0.382812 C 3.046875 -0.574219 3.238281 -0.792969 3.429688 -1.03125 C 3.621094 -1.273438 3.789062 -1.511719 3.957031 -1.75 C 4.007812 -1.824219 4.054688 -1.917969 4.125 -2.0625 C 4.199219 -2.207031 4.269531 -2.351562 4.367188 -2.519531 C 4.460938 -2.6875 4.558594 -2.855469 4.679688 -3.046875 C 4.796875 -3.238281 4.917969 -3.382812 5.039062 -3.503906 C 5.015625 -3.503906 4.964844 -3.480469 4.894531 -3.453125 C 4.894531 -3.480469 4.894531 -3.503906 4.871094 -3.527344 C 4.917969 -3.550781 4.941406 -3.574219 4.964844 -3.621094 C 4.917969 -3.621094 4.894531 -3.621094 4.894531 -3.648438 C 4.894531 -3.671875 4.894531 -3.695312 4.871094 -3.71875 C 4.917969 -3.742188 4.964844 -3.765625 5.015625 -3.789062 C 5.0625 -3.816406 5.085938 -3.839844 5.109375 -3.863281 C 5.109375 -3.839844 5.132812 -3.839844 5.160156 -3.839844 C 5.183594 -3.839844 5.230469 -3.839844 5.300781 -3.863281 C 5.375 -3.886719 5.445312 -3.910156 5.519531 -3.933594 C 5.566406 -3.933594 5.613281 -3.933594 5.664062 -3.933594 C 5.710938 -3.933594 5.757812 -3.933594 5.804688 -3.933594 L 6.046875 -3.984375 L 6.285156 -4.03125 C 6.261719 -4.03125 6.359375 -4.054688 6.597656 -4.101562 C 6.835938 -4.152344 7.101562 -4.175781 7.414062 -4.175781 C 7.246094 -3.671875 7.054688 -3.191406 6.835938 -2.734375 C 6.621094 -2.277344 6.40625 -1.847656 6.191406 -1.441406 C 6.214844 -1.464844 6.191406 -1.414062 6.140625 -1.320312 C 6.09375 -1.222656 6.046875 -1.105469 6 -0.984375 C 5.949219 -0.863281 5.902344 -0.71875 5.855469 -0.574219 C 5.804688 -0.433594 5.78125 -0.335938 5.78125 -0.265625 C 5.78125 -0.191406 5.804688 -0.121094 5.855469 -0.0703125 C 5.902344 -0.0234375 5.925781 0.046875 5.925781 0.121094 C 5.902344 0.121094 5.878906 0.121094 5.855469 0.144531 C 5.832031 0.167969 5.78125 0.191406 5.710938 0.214844 C 5.734375 0.238281 5.734375 0.3125 5.734375 0.40625 C 5.734375 0.457031 5.734375 0.480469 5.710938 0.480469 L 5.636719 0.480469 C 5.566406 0.480469 5.519531 0.527344 5.519531 0.601562 C 5.519531 0.648438 5.566406 0.695312 5.664062 0.769531 C 5.757812 0.839844 5.878906 0.910156 6.023438 0.984375 C 6.167969 1.054688 6.308594 1.128906 6.476562 1.175781 C 6.644531 1.222656 6.789062 1.246094 6.933594 1.246094 C 6.957031 1.246094 6.980469 1.246094 7.03125 1.222656 C 7.078125 1.199219 7.125 1.199219 7.171875 1.199219 C 7.199219 1.199219 7.246094 1.199219 7.292969 1.222656 C 7.339844 1.246094 7.390625 1.246094 7.4375 1.246094 C 7.507812 1.246094 7.628906 1.199219 7.773438 1.105469 C 7.917969 1.007812 8.0625 0.9375 8.179688 0.863281 L 8.207031 0.886719 C 8.179688 0.910156 8.179688 0.9375 8.179688 0.960938 C 8.179688 1.03125 8.253906 1.078125 8.398438 1.078125 L 8.445312 1.03125 C 8.515625 1.105469 8.566406 1.152344 8.589844 1.175781 C 8.757812 0.960938 8.902344 0.792969 9.019531 0.671875 C 9.140625 0.550781 9.214844 0.40625 9.261719 0.238281 C 9.285156 0.214844 9.308594 0.144531 9.355469 0.0234375 C 9.40625 -0.0976562 9.453125 -0.214844 9.523438 -0.359375 C 9.597656 -0.503906 9.644531 -0.648438 9.691406 -0.792969 C 9.742188 -0.9375 9.765625 -1.054688 9.765625 -1.152344 C 9.765625 -1.175781 9.789062 -1.273438 9.835938 -1.441406 C 9.886719 -1.609375 9.957031 -1.800781 10.054688 -2.015625 C 10.148438 -2.230469 10.246094 -2.445312 10.339844 -2.664062 C 10.4375 -2.878906 10.53125 -3.070312 10.628906 -3.214844 C 10.726562 -3.359375 10.773438 -3.453125 10.796875 -3.480469 C 10.820312 -3.503906 10.84375 -3.527344 10.84375 -3.550781 C 10.84375 -3.574219 10.84375 -3.621094 10.84375 -3.695312 C 10.84375 -3.765625 10.867188 -3.886719 10.941406 -4.054688 C 11.011719 -4.222656 11.109375 -4.488281 11.253906 -4.824219 C 11.394531 -5.160156 11.613281 -5.613281 11.875 -6.191406 C 12.042969 -6.359375 12.164062 -6.621094 12.261719 -7.003906 C 12.355469 -7.390625 12.5 -7.773438 12.667969 -8.132812 C 13.027344 -8.925781 13.363281 -9.644531 13.652344 -10.316406 C 13.941406 -10.988281 14.082031 -11.660156 14.082031 -12.332031 C 14.082031 -12.355469 14.058594 -12.453125 14.011719 -12.621094 C 13.964844 -12.789062 13.890625 -12.882812 13.820312 -12.90625 C 13.820312 -12.933594 13.84375 -12.933594 13.890625 -12.933594 C 13.820312 -13.195312 13.746094 -13.363281 13.675781 -13.4375 C 13.605469 -13.507812 13.53125 -13.605469 13.460938 -13.722656 L 13.53125 -13.722656 C 13.578125 -13.722656 13.628906 -13.699219 13.675781 -13.675781 L 13.820312 -13.578125 C 13.820312 -13.605469 13.820312 -13.628906 13.84375 -13.652344 C 13.722656 -13.699219 13.628906 -13.746094 13.554688 -13.773438 C 13.484375 -13.796875 13.410156 -13.867188 13.339844 -13.988281 C 13.316406 -13.964844 13.292969 -13.941406 13.269531 -13.914062 C 13.242188 -13.890625 13.21875 -13.890625 13.195312 -13.890625 C 13.21875 -13.890625 13.195312 -13.914062 13.148438 -13.941406 C 13.101562 -13.964844 13.050781 -13.988281 12.980469 -14.035156 C 12.90625 -14.082031 12.835938 -14.132812 12.789062 -14.179688 C 12.738281 -14.226562 12.714844 -14.277344 12.714844 -14.300781 C 12.714844 -14.324219 12.714844 -14.347656 12.738281 -14.371094 C 12.621094 -14.394531 12.546875 -14.417969 12.523438 -14.417969 C 12.476562 -14.417969 12.429688 -14.417969 12.378906 -14.417969 C 12.332031 -14.417969 12.285156 -14.417969 12.234375 -14.417969 C 12.117188 -14.417969 11.996094 -14.417969 11.875 -14.417969 C 11.757812 -14.417969 11.636719 -14.417969 11.515625 -14.417969 C 11.132812 -14.347656 10.84375 -14.277344 10.675781 -14.203125 C 10.507812 -14.132812 10.363281 -14.035156 10.269531 -13.941406 C 10.171875 -13.84375 10.078125 -13.722656 10.003906 -13.578125 C 9.933594 -13.4375 9.8125 -13.269531 9.644531 -13.101562 C 9.09375 -12.546875 8.636719 -11.996094 8.277344 -11.421875 C 7.917969 -10.84375 7.605469 -10.339844 7.339844 -9.910156 C 7.367188 -9.910156 7.367188 -9.910156 7.367188 -9.910156 C 7.367188 -9.910156 7.390625 -9.910156 7.414062 -9.910156 C 7.292969 -9.835938 7.171875 -9.742188 7.078125 -9.597656 C 6.980469 -9.453125 6.863281 -9.285156 6.742188 -9.117188 C 6.621094 -8.949219 6.503906 -8.757812 6.40625 -8.566406 C 6.308594 -8.375 6.191406 -8.207031 6.070312 -8.0625 C 6.070312 -8.085938 6.046875 -8.0625 6.023438 -7.988281 C 6 -7.917969 5.949219 -7.820312 5.878906 -7.726562 C 5.804688 -7.628906 5.734375 -7.535156 5.636719 -7.4375 C 5.542969 -7.339844 5.445312 -7.269531 5.328125 -7.246094 C 5.351562 -7.222656 5.375 -7.199219 5.398438 -7.199219 C 5.375 -7.171875 5.351562 -7.148438 5.328125 -7.125 L 5.277344 -7.03125 C 5.109375 -6.476562 4.847656 -6.023438 4.488281 -5.6875 C 4.125 -5.351562 3.71875 -5.183594 3.261719 -5.183594 C 3 -5.183594 2.757812 -5.207031 2.519531 -5.253906 C 2.277344 -5.300781 2.039062 -5.351562 1.777344 -5.375 C 1.65625 -5.375 1.535156 -5.375 1.441406 -5.375 C 1.34375 -5.375 1.246094 -5.328125 1.175781 -5.253906 C 1.199219 -5.277344 1.199219 -5.277344 1.152344 -5.253906 C 1.105469 -5.230469 1.054688 -5.183594 0.984375 -5.109375 C 0.910156 -5.039062 0.839844 -4.964844 0.792969 -4.894531 C 0.742188 -4.824219 0.71875 -4.75 0.71875 -4.679688 C 0.71875 -4.535156 0.769531 -4.414062 0.863281 -4.292969 C 0.960938 -4.175781 1.03125 -4.03125 1.105469 -3.863281 C 1.152344 -3.789062 1.199219 -3.695312 1.246094 -3.574219 C 1.296875 -3.453125 1.367188 -3.335938 1.464844 -3.214844 C 1.558594 -3.09375 1.65625 -3 1.777344 -2.902344 C 1.894531 -2.808594 2.0625 -2.757812 2.253906 -2.757812 L 2.328125 -2.757812 C 2.351562 -2.757812 2.375 -2.757812 2.398438 -2.734375 C 2.085938 -2.328125 1.847656 -1.96875 1.679688 -1.65625 C 1.511719 -1.34375 1.273438 -1.03125 0.960938 -0.71875 C 0.960938 -0.742188 0.960938 -0.742188 0.9375 -0.742188 C 0.960938 -0.769531 0.984375 -0.792969 1.007812 -0.816406 C 1.03125 -0.839844 1.054688 -0.863281 1.078125 -0.886719 C 1.007812 -0.816406 0.9375 -0.695312 0.863281 -0.550781 C 0.792969 -0.40625 0.71875 -0.3125 0.648438 -0.238281 C 0.648438 -0.265625 0.625 -0.238281 0.601562 -0.191406 C 0.574219 -0.144531 0.527344 -0.0976562 0.480469 -0.046875 C 0.433594 0 0.382812 0.046875 0.335938 0.0976562 L 0.265625 0.167969 L 0.265625 0.191406 C 0.265625 0.214844 0.238281 0.238281 0.214844 0.238281 C 0.191406 0.238281 0.167969 0.265625 0.144531 0.289062 C 0.144531 0.3125 0.167969 0.335938 0.191406 0.359375 C 0.144531 0.382812 0.0703125 0.457031 -0.046875 0.601562 C -0.167969 0.742188 -0.214844 0.886719 -0.214844 1.007812 C -0.214844 1.03125 -0.191406 1.054688 -0.121094 1.078125 C -0.144531 1.054688 -0.167969 1.007812 -0.191406 0.9375 L -0.0976562 0.9375 C -0.121094 0.960938 -0.121094 1.007812 -0.121094 1.078125 C -0.0703125 1.03125 -0.046875 1.007812 -0.0234375 1.007812 C -0.0234375 1.078125 -0.0703125 1.152344 -0.167969 1.222656 C -0.265625 1.296875 -0.3125 1.367188 -0.3125 1.441406 C -0.3125 1.511719 -0.289062 1.558594 -0.214844 1.582031 C -0.144531 1.609375 -0.0976562 1.632812 -0.0703125 1.632812 C -0.0976562 1.632812 -0.0703125 1.632812 0 1.609375 C 0.0703125 1.582031 0.167969 1.558594 0.265625 1.535156 C 0.359375 1.511719 0.457031 1.488281 0.550781 1.441406 C 0.648438 1.390625 0.71875 1.34375 0.769531 1.296875 L 0.886719 1.199219 C 0.984375 1.128906 1.078125 1.054688 1.175781 0.984375 C 1.273438 0.910156 1.367188 0.863281 1.464844 0.816406 C 1.558594 0.769531 1.632812 0.742188 1.65625 0.742188 Z M 7.941406 -8.734375 L 7.871094 -8.734375 C 7.894531 -8.757812 7.917969 -8.804688 7.941406 -8.851562 C 7.964844 -8.902344 7.988281 -8.925781 8.039062 -8.925781 L 8.085938 -8.925781 C 8.109375 -8.972656 8.132812 -9.019531 8.132812 -9.070312 C 8.132812 -9.117188 8.15625 -9.164062 8.179688 -9.214844 L 8.15625 -9.214844 L 8.207031 -9.238281 C 8.179688 -9.261719 8.15625 -9.285156 8.15625 -9.308594 C 8.15625 -9.355469 8.207031 -9.429688 8.300781 -9.523438 C 8.398438 -9.621094 8.445312 -9.691406 8.445312 -9.71875 C 8.445312 -9.691406 8.46875 -9.742188 8.542969 -9.859375 C 8.613281 -9.980469 8.660156 -10.054688 8.683594 -10.078125 C 8.660156 -10.078125 8.636719 -10.078125 8.613281 -10.078125 C 8.589844 -10.078125 8.566406 -10.078125 8.542969 -10.078125 C 8.542969 -10.101562 8.566406 -10.148438 8.636719 -10.222656 C 8.710938 -10.292969 8.78125 -10.363281 8.851562 -10.460938 C 8.925781 -10.558594 8.996094 -10.652344 9.070312 -10.75 C 9.140625 -10.84375 9.164062 -10.917969 9.164062 -10.964844 C 9.164062 -10.988281 9.164062 -11.011719 9.140625 -11.011719 C 9.117188 -11.011719 9.09375 -11.035156 9.070312 -11.058594 C 9.09375 -11.035156 9.117188 -11.035156 9.117188 -11.035156 C 9.117188 -11.035156 9.140625 -11.035156 9.164062 -11.011719 C 9.214844 -11.085938 9.261719 -11.15625 9.308594 -11.253906 C 9.355469 -11.347656 9.40625 -11.421875 9.429688 -11.492188 C 9.429688 -11.515625 9.429688 -11.539062 9.40625 -11.5625 C 9.382812 -11.5625 9.355469 -11.539062 9.332031 -11.515625 C 9.308594 -11.492188 9.285156 -11.46875 9.261719 -11.445312 C 9.285156 -11.46875 9.332031 -11.539062 9.382812 -11.636719 C 9.355469 -11.613281 9.332031 -11.613281 9.332031 -11.613281 C 9.332031 -11.613281 9.308594 -11.613281 9.285156 -11.589844 C 9.308594 -11.636719 9.332031 -11.683594 9.332031 -11.730469 C 9.332031 -11.78125 9.355469 -11.804688 9.40625 -11.828125 C 9.40625 -11.804688 9.40625 -11.78125 9.40625 -11.78125 C 9.40625 -11.78125 9.40625 -11.757812 9.40625 -11.730469 C 9.429688 -11.730469 9.429688 -11.730469 9.429688 -11.730469 C 9.429688 -11.730469 9.453125 -11.730469 9.476562 -11.730469 C 9.453125 -11.660156 9.429688 -11.613281 9.429688 -11.589844 C 9.476562 -11.589844 9.5 -11.589844 9.5 -11.613281 L 9.5 -11.636719 C 9.574219 -11.707031 9.597656 -11.757812 9.597656 -11.78125 C 9.574219 -11.78125 9.550781 -11.78125 9.523438 -11.78125 C 9.5 -11.78125 9.476562 -11.78125 9.453125 -11.78125 L 9.453125 -11.828125 C 9.453125 -11.851562 9.453125 -11.851562 9.476562 -11.851562 L 9.5 -11.851562 C 9.523438 -11.851562 9.523438 -11.851562 9.523438 -11.851562 C 9.523438 -11.851562 9.523438 -11.851562 9.550781 -11.851562 C 9.550781 -11.875 9.550781 -11.875 9.550781 -11.875 C 9.550781 -11.875 9.550781 -11.875 9.550781 -11.898438 C 9.550781 -11.925781 9.550781 -11.949219 9.523438 -11.972656 C 9.621094 -12.066406 9.691406 -12.140625 9.742188 -12.210938 C 9.789062 -12.285156 9.835938 -12.378906 9.910156 -12.5 C 9.910156 -12.570312 9.910156 -12.621094 9.886719 -12.667969 C 9.910156 -12.644531 9.933594 -12.621094 9.957031 -12.597656 C 9.957031 -12.621094 9.957031 -12.621094 9.980469 -12.621094 C 9.957031 -12.644531 9.933594 -12.667969 9.910156 -12.691406 C 10.078125 -12.859375 10.195312 -12.957031 10.292969 -12.980469 C 10.390625 -13.003906 10.507812 -13.027344 10.675781 -13.027344 L 10.699219 -13.003906 C 10.699219 -12.980469 10.699219 -12.980469 10.726562 -12.980469 C 10.699219 -12.957031 10.675781 -12.933594 10.675781 -12.90625 C 10.675781 -12.882812 10.652344 -12.859375 10.605469 -12.859375 L 10.582031 -12.859375 C 10.558594 -12.859375 10.53125 -12.835938 10.507812 -12.8125 C 10.507812 -12.789062 10.53125 -12.765625 10.558594 -12.738281 C 10.53125 -12.738281 10.460938 -12.621094 10.339844 -12.402344 C 10.222656 -12.1875 10.101562 -11.949219 9.980469 -11.683594 C 9.886719 -11.371094 9.765625 -11.058594 9.621094 -10.75 C 9.476562 -10.4375 9.332031 -10.101562 9.164062 -9.765625 C 8.996094 -9.40625 8.828125 -9.019531 8.683594 -8.613281 C 8.542969 -8.207031 8.398438 -7.820312 8.230469 -7.460938 C 8.207031 -7.4375 8.15625 -7.292969 8.0625 -7.03125 C 7.964844 -6.765625 7.84375 -6.476562 7.726562 -6.167969 C 7.605469 -5.855469 7.484375 -5.566406 7.367188 -5.328125 C 7.246094 -5.085938 7.148438 -4.964844 7.078125 -4.964844 C 6.957031 -4.964844 6.8125 -4.964844 6.644531 -4.964844 C 6.476562 -4.964844 6.308594 -4.964844 6.140625 -4.964844 C 5.972656 -4.964844 5.832031 -4.964844 5.710938 -4.964844 C 5.589844 -4.964844 5.519531 -4.992188 5.496094 -5.015625 C 5.566406 -5.109375 5.664062 -5.207031 5.78125 -5.300781 C 5.902344 -5.398438 6 -5.519531 6.070312 -5.636719 L 6.046875 -5.6875 L 6.335938 -5.972656 C 6.308594 -6 6.285156 -6.023438 6.261719 -6.023438 C 6.238281 -6.023438 6.238281 -6.023438 6.238281 -6.046875 C 6.238281 -6.023438 6.261719 -6.023438 6.285156 -6.070312 C 6.308594 -6.117188 6.359375 -6.167969 6.40625 -6.238281 L 6.550781 -6.429688 C 6.597656 -6.503906 6.644531 -6.527344 6.695312 -6.527344 C 6.695312 -6.550781 6.667969 -6.574219 6.644531 -6.574219 C 6.621094 -6.574219 6.597656 -6.597656 6.597656 -6.621094 C 6.597656 -6.667969 6.621094 -6.742188 6.695312 -6.835938 C 6.765625 -6.933594 6.8125 -7.03125 6.835938 -7.101562 C 6.863281 -7.199219 6.980469 -7.390625 7.171875 -7.652344 C 7.367188 -7.917969 7.558594 -8.253906 7.773438 -8.660156 Z M 8.039062 -9.980469 C 8.0625 -10.003906 8.085938 -10.027344 8.109375 -10.054688 C 8.132812 -10.078125 8.15625 -10.101562 8.179688 -10.125 C 8.179688 -10.003906 8.132812 -9.933594 8.0625 -9.933594 Z M 1.65625 0.769531 C 1.582031 0.792969 1.535156 0.839844 1.511719 0.910156 C 1.488281 0.984375 1.441406 1.03125 1.390625 1.078125 C 1.414062 1.078125 1.464844 1.054688 1.535156 0.984375 C 1.609375 0.910156 1.65625 0.839844 1.65625 0.769531 Z M 1.65625 0.769531 C 1.777344 0.769531 1.847656 0.695312 1.871094 0.550781 C 1.847656 0.625 1.824219 0.648438 1.800781 0.648438 L 1.75 0.648438 C 1.726562 0.648438 1.703125 0.671875 1.703125 0.695312 C 1.703125 0.71875 1.679688 0.742188 1.65625 0.769531 Z M 2.015625 0.40625 C 1.992188 0.457031 1.96875 0.503906 1.945312 0.527344 C 1.917969 0.550781 1.917969 0.574219 1.917969 0.601562 L 1.96875 0.601562 C 1.992188 0.601562 2.015625 0.574219 2.015625 0.550781 C 2.015625 0.480469 2.015625 0.433594 1.992188 0.40625 Z M 2.015625 0.40625 "/></g></g></g><g fill="rgb(100%, 100%, 100%)" fill-opacity="1"><g transform="translate(192.030569, 124.385185)"><g><path d="M 12.933594 -9.644531 C 12.933594 -9.691406 12.90625 -9.71875 12.859375 -9.71875 C 12.8125 -9.71875 12.765625 -9.71875 12.738281 -9.742188 C 12.8125 -9.859375 12.859375 -9.957031 12.90625 -10.054688 C 12.957031 -10.148438 13.003906 -10.246094 13.074219 -10.339844 L 13.125 -10.292969 C 13.125 -10.316406 13.125 -10.339844 13.125 -10.363281 C 13.125 -10.390625 13.171875 -10.390625 13.242188 -10.390625 L 13.316406 -10.390625 L 13.21875 -10.484375 C 13.195312 -10.507812 13.171875 -10.558594 13.171875 -10.628906 C 13.171875 -10.699219 13.195312 -10.75 13.269531 -10.773438 C 13.339844 -10.796875 13.363281 -10.84375 13.363281 -10.917969 C 13.363281 -10.941406 13.363281 -10.964844 13.339844 -10.988281 C 13.316406 -11.011719 13.316406 -11.035156 13.316406 -11.058594 C 13.316406 -11.179688 13.339844 -11.300781 13.410156 -11.421875 C 13.484375 -11.539062 13.507812 -11.683594 13.507812 -11.851562 C 13.53125 -11.851562 13.554688 -11.828125 13.578125 -11.757812 C 13.578125 -11.78125 13.578125 -11.804688 13.578125 -11.828125 C 13.578125 -11.851562 13.578125 -11.875 13.578125 -11.898438 C 13.578125 -11.972656 13.605469 -12.066406 13.675781 -12.164062 C 13.675781 -12.1875 13.652344 -12.210938 13.628906 -12.234375 C 13.605469 -12.261719 13.578125 -12.285156 13.578125 -12.308594 C 13.578125 -12.378906 13.605469 -12.429688 13.652344 -12.453125 C 13.652344 -12.429688 13.652344 -12.402344 13.652344 -12.378906 L 13.675781 -12.308594 C 13.675781 -12.332031 13.675781 -12.355469 13.675781 -12.378906 C 13.675781 -12.402344 13.675781 -12.429688 13.675781 -12.453125 C 13.675781 -12.667969 13.605469 -12.859375 13.460938 -13.050781 C 13.316406 -13.242188 13.125 -13.410156 12.90625 -13.554688 C 12.691406 -13.699219 12.453125 -13.820312 12.1875 -13.914062 C 11.925781 -14.011719 11.683594 -14.058594 11.46875 -14.058594 C 11.371094 -14.058594 11.277344 -14.035156 11.179688 -14.011719 C 11.085938 -13.988281 10.988281 -13.964844 10.894531 -13.964844 C 10.84375 -13.964844 10.796875 -13.988281 10.75 -14.011719 C 10.699219 -14.035156 10.628906 -14.058594 10.558594 -14.058594 C 10.582031 -14.058594 10.558594 -14.058594 10.484375 -14.058594 C 10.414062 -14.058594 10.316406 -14.035156 10.195312 -14.011719 C 10.078125 -13.988281 9.957031 -13.964844 9.835938 -13.941406 C 9.71875 -13.914062 9.644531 -13.867188 9.621094 -13.820312 C 9.597656 -13.796875 9.574219 -13.796875 9.550781 -13.820312 C 9.523438 -13.84375 9.5 -13.84375 9.476562 -13.84375 C 9.214844 -13.820312 8.925781 -13.746094 8.613281 -13.628906 C 8.300781 -13.507812 8.039062 -13.410156 7.796875 -13.339844 C 7.726562 -13.316406 7.605469 -13.269531 7.460938 -13.195312 C 7.316406 -13.125 7.171875 -13.050781 7.03125 -12.980469 C 6.886719 -12.90625 6.742188 -12.835938 6.597656 -12.765625 C 6.453125 -12.691406 6.335938 -12.644531 6.261719 -12.621094 C 6.023438 -12.570312 5.832031 -12.453125 5.710938 -12.285156 C 5.589844 -12.117188 5.445312 -11.972656 5.277344 -11.851562 C 5.160156 -11.78125 5.015625 -11.660156 4.824219 -11.492188 C 4.628906 -11.324219 4.4375 -11.109375 4.222656 -10.867188 C 4.007812 -10.628906 3.789062 -10.363281 3.597656 -10.101562 C 3.40625 -9.835938 3.238281 -9.574219 3.117188 -9.308594 C 2.902344 -8.996094 2.734375 -8.757812 2.613281 -8.566406 C 2.496094 -8.375 2.375 -8.179688 2.277344 -8.011719 C 2.183594 -7.84375 2.0625 -7.652344 1.945312 -7.4375 C 1.824219 -7.222656 1.65625 -6.910156 1.464844 -6.503906 C 1.414062 -6.429688 1.34375 -6.285156 1.246094 -6.09375 C 1.152344 -5.902344 1.054688 -5.710938 0.960938 -5.519531 C 0.863281 -5.328125 0.769531 -5.132812 0.695312 -4.941406 C 0.625 -4.75 0.574219 -4.605469 0.574219 -4.535156 C 0.601562 -4.535156 0.625 -4.535156 0.625 -4.558594 C 0.625 -4.582031 0.625 -4.605469 0.648438 -4.628906 L 0.648438 -4.535156 C 0.648438 -4.511719 0.648438 -4.488281 0.625 -4.460938 L 0.574219 -4.460938 C 0.550781 -4.460938 0.527344 -4.4375 0.527344 -4.414062 C 0.527344 -4.390625 0.503906 -4.367188 0.480469 -4.34375 L 0.527344 -4.246094 C 0.480469 -4.246094 0.433594 -4.175781 0.359375 -4.03125 C 0.289062 -3.886719 0.238281 -3.71875 0.191406 -3.527344 C 0.144531 -3.335938 0.0976562 -3.144531 0.046875 -2.949219 C 0 -2.757812 -0.0234375 -2.613281 -0.0234375 -2.519531 C -0.0234375 -2.496094 -0.0234375 -2.472656 -0.0234375 -2.472656 C -0.0234375 -2.472656 -0.0234375 -2.445312 -0.0234375 -2.421875 C -0.0234375 -2.398438 -0.0234375 -2.398438 -0.046875 -2.398438 C -0.0703125 -2.398438 -0.0976562 -2.398438 -0.121094 -2.375 C -0.121094 -2.351562 -0.121094 -2.328125 -0.121094 -2.304688 C -0.121094 -2.277344 -0.121094 -2.253906 -0.121094 -2.230469 C -0.121094 -2.207031 -0.121094 -2.160156 -0.121094 -2.113281 C -0.121094 -2.0625 -0.121094 -2.015625 -0.121094 -1.992188 C -0.121094 -1.96875 -0.121094 -1.917969 -0.0976562 -1.871094 C -0.0703125 -1.824219 -0.0703125 -1.777344 -0.0703125 -1.75 L -0.121094 -1.609375 C -0.144531 -1.558594 -0.144531 -1.511719 -0.144531 -1.464844 C -0.121094 -1.054688 -0.0234375 -0.671875 0.144531 -0.335938 C 0.3125 0 0.503906 0.289062 0.742188 0.550781 C 0.984375 0.816406 1.246094 1.03125 1.535156 1.199219 C 1.824219 1.367188 2.113281 1.488281 2.398438 1.558594 C 2.398438 1.535156 2.398438 1.511719 2.421875 1.488281 C 2.496094 1.558594 2.589844 1.609375 2.710938 1.632812 C 2.832031 1.65625 2.902344 1.679688 2.925781 1.679688 C 2.949219 1.679688 2.976562 1.679688 3 1.679688 C 3.023438 1.679688 3.046875 1.679688 3.070312 1.679688 C 3.09375 1.679688 3.117188 1.679688 3.144531 1.679688 C 3.167969 1.679688 3.191406 1.679688 3.214844 1.679688 C 3.238281 1.679688 3.261719 1.679688 3.285156 1.65625 C 3.3125 1.632812 3.335938 1.632812 3.359375 1.632812 C 3.382812 1.632812 3.382812 1.632812 3.382812 1.65625 C 3.382812 1.703125 3.382812 1.75 3.359375 1.777344 C 3.40625 1.75 3.453125 1.726562 3.503906 1.726562 C 3.550781 1.726562 3.597656 1.726562 3.621094 1.703125 C 3.621094 1.726562 3.621094 1.75 3.597656 1.777344 C 3.621094 1.777344 3.648438 1.777344 3.671875 1.800781 C 3.695312 1.824219 3.71875 1.824219 3.742188 1.824219 C 3.765625 1.824219 3.789062 1.824219 3.816406 1.800781 C 3.839844 1.777344 3.863281 1.75 3.886719 1.726562 C 3.886719 1.75 3.910156 1.777344 3.984375 1.777344 C 4.054688 1.777344 4.125 1.777344 4.199219 1.800781 C 4.292969 1.800781 4.414062 1.800781 4.558594 1.800781 C 4.703125 1.800781 4.796875 1.777344 4.847656 1.726562 C 4.871094 1.726562 4.847656 1.703125 4.773438 1.65625 C 4.703125 1.609375 4.65625 1.582031 4.628906 1.558594 C 4.703125 1.535156 4.796875 1.511719 4.917969 1.511719 C 5.039062 1.511719 5.132812 1.511719 5.230469 1.511719 C 5.300781 1.511719 5.351562 1.511719 5.398438 1.535156 C 5.328125 1.609375 5.253906 1.65625 5.183594 1.65625 C 5.109375 1.65625 5.039062 1.703125 4.992188 1.777344 L 5.039062 1.777344 C 5.085938 1.777344 5.132812 1.777344 5.183594 1.75 C 5.230469 1.726562 5.277344 1.726562 5.351562 1.726562 L 5.398438 1.726562 C 5.398438 1.703125 5.398438 1.679688 5.375 1.65625 L 5.566406 1.65625 C 5.542969 1.679688 5.519531 1.679688 5.496094 1.679688 L 5.46875 1.679688 C 5.542969 1.679688 5.664062 1.65625 5.832031 1.582031 C 6 1.511719 6.191406 1.441406 6.40625 1.367188 C 6.621094 1.296875 6.8125 1.222656 7.003906 1.152344 C 7.199219 1.078125 7.367188 1.054688 7.484375 1.054688 L 7.4375 0.960938 C 7.460938 0.9375 7.484375 0.9375 7.507812 0.9375 C 7.535156 0.9375 7.535156 0.960938 7.535156 1.03125 C 7.558594 1.007812 7.582031 0.984375 7.605469 0.960938 C 7.628906 0.9375 7.652344 0.9375 7.675781 0.9375 C 7.675781 0.910156 7.675781 0.886719 7.652344 0.863281 L 7.558594 0.910156 C 7.582031 0.886719 7.605469 0.863281 7.605469 0.839844 C 7.605469 0.816406 7.628906 0.816406 7.652344 0.816406 C 7.675781 0.816406 7.703125 0.816406 7.703125 0.816406 C 7.703125 0.816406 7.726562 0.816406 7.75 0.816406 C 7.820312 0.816406 7.917969 0.769531 8.039062 0.671875 C 7.988281 0.695312 8.039062 0.671875 8.179688 0.601562 C 8.324219 0.527344 8.492188 0.433594 8.660156 0.335938 C 8.828125 0.238281 8.996094 0.144531 9.164062 0.046875 C 9.332031 -0.046875 9.40625 -0.121094 9.40625 -0.144531 L 9.40625 -0.191406 C 9.429688 -0.191406 9.429688 -0.191406 9.429688 -0.214844 C 9.429688 -0.238281 9.429688 -0.265625 9.453125 -0.289062 C 9.40625 -0.265625 9.40625 -0.265625 9.476562 -0.289062 C 9.550781 -0.3125 9.644531 -0.335938 9.765625 -0.382812 C 9.886719 -0.433594 9.980469 -0.503906 10.078125 -0.601562 C 10.171875 -0.695312 10.222656 -0.816406 10.222656 -0.960938 L 10.269531 -0.910156 C 10.292969 -0.910156 10.316406 -0.9375 10.363281 -0.984375 C 10.414062 -1.03125 10.460938 -1.078125 10.53125 -1.128906 C 10.605469 -1.175781 10.652344 -1.222656 10.699219 -1.296875 C 10.75 -1.367188 10.773438 -1.414062 10.773438 -1.441406 C 10.773438 -1.464844 10.773438 -1.464844 10.773438 -1.464844 C 10.773438 -1.464844 10.773438 -1.464844 10.773438 -1.488281 L 10.796875 -1.511719 C 10.820312 -1.488281 10.84375 -1.488281 10.867188 -1.488281 C 10.867188 -1.511719 10.867188 -1.535156 10.867188 -1.535156 C 10.867188 -1.535156 10.867188 -1.535156 10.867188 -1.558594 L 10.894531 -1.535156 L 11.035156 -1.75 L 11.011719 -1.777344 C 10.988281 -1.75 10.964844 -1.75 10.964844 -1.75 C 10.964844 -1.75 10.941406 -1.75 10.917969 -1.726562 L 10.894531 -1.777344 C 10.894531 -1.847656 10.941406 -1.894531 11.011719 -1.894531 C 11.035156 -1.894531 11.058594 -1.894531 11.085938 -1.894531 C 11.109375 -1.894531 11.132812 -1.894531 11.15625 -1.894531 C 11.226562 -1.894531 11.277344 -1.917969 11.300781 -1.96875 L 11.371094 -2.136719 C 11.394531 -2.207031 11.445312 -2.277344 11.492188 -2.351562 C 11.539062 -2.421875 11.613281 -2.496094 11.730469 -2.566406 C 11.660156 -2.589844 11.589844 -2.613281 11.539062 -2.640625 C 11.492188 -2.664062 11.421875 -2.6875 11.347656 -2.710938 C 11.226562 -2.710938 11.085938 -2.640625 10.941406 -2.519531 C 10.796875 -2.398438 10.726562 -2.277344 10.726562 -2.160156 L 10.460938 -1.894531 C 10.292969 -1.726562 10.078125 -1.535156 9.8125 -1.296875 C 9.550781 -1.054688 9.261719 -0.816406 8.949219 -0.574219 C 8.636719 -0.335938 8.347656 -0.144531 8.085938 0.0234375 C 7.964844 0.0976562 7.796875 0.191406 7.605469 0.335938 C 7.414062 0.480469 7.171875 0.625 6.886719 0.769531 C 6.597656 0.910156 6.285156 1.03125 5.949219 1.152344 C 5.613281 1.273438 5.253906 1.320312 4.871094 1.320312 C 4.558594 1.320312 4.246094 1.273438 3.957031 1.175781 C 3.910156 1.152344 3.816406 1.105469 3.648438 1.03125 C 3.480469 0.960938 3.3125 0.839844 3.144531 0.695312 C 2.976562 0.550781 2.832031 0.382812 2.6875 0.191406 C 2.542969 0 2.472656 -0.214844 2.472656 -0.480469 C 2.472656 -0.503906 2.496094 -0.527344 2.519531 -0.574219 C 2.542969 -0.625 2.566406 -0.671875 2.566406 -0.742188 C 2.589844 -0.742188 2.613281 -0.71875 2.613281 -0.671875 C 2.640625 -0.695312 2.640625 -0.695312 2.640625 -0.695312 C 2.640625 -0.695312 2.640625 -0.695312 2.664062 -0.71875 L 2.664062 -0.265625 C 2.6875 -0.289062 2.710938 -0.3125 2.710938 -0.335938 C 2.710938 -0.359375 2.734375 -0.382812 2.757812 -0.40625 C 2.832031 -0.335938 2.878906 -0.265625 2.925781 -0.167969 C 2.976562 -0.0703125 3.046875 0 3.144531 0.0234375 C 3.144531 0 3.144531 -0.0234375 3.117188 -0.0234375 C 3.046875 -0.144531 2.976562 -0.238281 2.902344 -0.3125 C 2.832031 -0.382812 2.808594 -0.503906 2.808594 -0.648438 C 2.808594 -0.816406 2.808594 -0.984375 2.808594 -1.152344 C 2.808594 -1.320312 2.808594 -1.488281 2.832031 -1.65625 C 2.832031 -1.726562 2.832031 -1.777344 2.808594 -1.800781 C 2.832031 -1.871094 2.855469 -1.96875 2.902344 -2.0625 C 2.949219 -2.160156 2.976562 -2.277344 2.976562 -2.398438 C 2.976562 -2.421875 2.976562 -2.445312 2.976562 -2.445312 C 2.976562 -2.445312 2.976562 -2.445312 2.976562 -2.472656 C 2.976562 -2.496094 2.976562 -2.519531 3 -2.542969 C 3.023438 -2.566406 3.023438 -2.589844 3.023438 -2.613281 L 3.023438 -2.664062 L 3.09375 -2.589844 C 3.09375 -2.640625 3.09375 -2.6875 3.09375 -2.734375 C 3.09375 -2.78125 3.09375 -2.832031 3.09375 -2.855469 C 3.167969 -2.925781 3.238281 -3.046875 3.3125 -3.214844 C 3.382812 -3.382812 3.453125 -3.574219 3.550781 -3.789062 C 3.648438 -4.007812 3.742188 -4.222656 3.863281 -4.4375 C 3.984375 -4.65625 4.125 -4.847656 4.292969 -5.015625 C 4.367188 -5.132812 4.414062 -5.277344 4.460938 -5.445312 C 4.511719 -5.613281 4.65625 -5.855469 4.917969 -6.167969 C 4.941406 -6.191406 4.992188 -6.238281 5.0625 -6.308594 C 5.132812 -6.382812 5.207031 -6.476562 5.300781 -6.574219 C 5.398438 -6.667969 5.46875 -6.765625 5.542969 -6.886719 C 5.613281 -7.003906 5.636719 -7.101562 5.636719 -7.199219 L 5.636719 -7.246094 C 5.949219 -7.558594 6.191406 -7.871094 6.359375 -8.179688 C 6.527344 -8.492188 6.71875 -8.828125 6.910156 -9.214844 C 7.171875 -9.476562 7.367188 -9.742188 7.484375 -10.003906 C 7.605469 -10.269531 7.773438 -10.53125 7.988281 -10.796875 C 8.011719 -10.820312 8.085938 -10.964844 8.230469 -11.226562 C 8.375 -11.492188 8.515625 -11.707031 8.683594 -11.875 C 8.710938 -11.898438 8.804688 -11.949219 8.949219 -11.996094 C 9.09375 -12.042969 9.214844 -12.140625 9.332031 -12.308594 C 9.40625 -12.378906 9.453125 -12.429688 9.5 -12.453125 C 9.550781 -12.476562 9.597656 -12.5 9.667969 -12.523438 C 9.742188 -12.546875 9.8125 -12.570312 9.910156 -12.621094 C 10.003906 -12.667969 10.125 -12.765625 10.269531 -12.90625 C 10.246094 -12.882812 10.246094 -12.882812 10.269531 -12.90625 C 10.292969 -12.933594 10.339844 -12.980469 10.390625 -13.027344 C 10.4375 -13.074219 10.507812 -13.125 10.582031 -13.171875 C 10.652344 -13.21875 10.726562 -13.242188 10.796875 -13.242188 C 10.820312 -13.242188 10.84375 -13.242188 10.867188 -13.242188 C 10.894531 -13.242188 10.917969 -13.242188 10.941406 -13.242188 C 11.445312 -13.074219 11.78125 -12.859375 11.925781 -12.597656 C 12.066406 -12.332031 12.140625 -11.972656 12.140625 -11.492188 C 12.140625 -11.277344 12.09375 -11.058594 12.019531 -10.84375 C 11.949219 -10.628906 11.875 -10.414062 11.804688 -10.195312 C 11.730469 -9.980469 11.660156 -9.765625 11.589844 -9.574219 C 11.515625 -9.382812 11.46875 -9.1875 11.46875 -9.019531 C 11.46875 -8.851562 11.492188 -8.757812 11.5625 -8.734375 C 11.636719 -8.710938 11.707031 -8.660156 11.78125 -8.613281 C 11.804688 -8.636719 11.828125 -8.660156 11.875 -8.683594 C 11.925781 -8.710938 11.972656 -8.710938 11.996094 -8.710938 L 12.019531 -8.683594 C 12.09375 -8.757812 12.140625 -8.78125 12.164062 -8.78125 C 12.1875 -8.78125 12.1875 -8.828125 12.1875 -8.902344 C 12.164062 -8.925781 12.140625 -8.925781 12.117188 -8.925781 C 12.09375 -8.925781 12.066406 -8.925781 12.042969 -8.949219 C 12.066406 -8.972656 12.09375 -9.019531 12.117188 -9.09375 C 12.140625 -9.164062 12.1875 -9.1875 12.234375 -9.1875 C 12.261719 -9.1875 12.285156 -9.164062 12.285156 -9.140625 C 12.285156 -9.117188 12.285156 -9.09375 12.308594 -9.09375 C 12.332031 -9.09375 12.332031 -9.09375 12.332031 -9.09375 C 12.332031 -9.09375 12.332031 -9.09375 12.355469 -9.09375 C 12.355469 -9.117188 12.332031 -9.140625 12.308594 -9.140625 C 12.285156 -9.140625 12.261719 -9.164062 12.234375 -9.1875 C 12.261719 -9.1875 12.261719 -9.1875 12.261719 -9.214844 C 12.285156 -9.214844 12.285156 -9.214844 12.285156 -9.214844 C 12.285156 -9.214844 12.308594 -9.214844 12.332031 -9.214844 C 12.355469 -9.214844 12.378906 -9.214844 12.402344 -9.238281 Z M 12.308594 -9.765625 C 12.285156 -9.691406 12.234375 -9.667969 12.1875 -9.691406 C 12.140625 -9.71875 12.09375 -9.691406 12.066406 -9.621094 C 12.042969 -9.621094 12.019531 -9.621094 11.996094 -9.644531 C 12.066406 -9.71875 12.117188 -9.742188 12.140625 -9.71875 C 12.164062 -9.691406 12.210938 -9.691406 12.285156 -9.71875 Z M 12.378906 -9.1875 L 12.378906 -9.070312 C 12.402344 -9.070312 12.429688 -9.09375 12.453125 -9.164062 C 12.476562 -9.238281 12.5 -9.285156 12.523438 -9.332031 C 12.476562 -9.332031 12.453125 -9.332031 12.453125 -9.355469 C 12.453125 -9.382812 12.429688 -9.40625 12.402344 -9.429688 Z M 12.621094 -9.453125 C 12.621094 -9.476562 12.621094 -9.5 12.621094 -9.523438 C 12.621094 -9.550781 12.621094 -9.574219 12.621094 -9.597656 C 12.621094 -9.621094 12.597656 -9.644531 12.546875 -9.667969 C 12.570312 -9.644531 12.570312 -9.621094 12.570312 -9.597656 C 12.570312 -9.574219 12.570312 -9.550781 12.597656 -9.523438 Z M 12.621094 -9.453125 "/></g></g></g></svg>